<svg width="507" height="590" viewBox="0 0 507 590" fill="none" xmlns="http://www.w3.org/2000/svg">
<path fill-rule="evenodd" clip-rule="evenodd" d="M292.464 475.25H215.222V556.594H215.224C215.222 556.701 215.222 556.809 215.222 556.916C215.222 572.716 232.513 585.524 253.843 585.524C275.173 585.524 292.464 572.716 292.464 556.916C292.464 556.809 292.463 556.701 292.462 556.594H292.464V475.25Z" fill="white"/>
<path d="M215.222 475.25V471.456H211.427V475.25H215.222ZM292.464 475.25H296.259V471.456H292.464V475.25ZM215.222 556.594H211.427V560.389H215.222V556.594ZM215.224 556.594L219.018 556.651L219.076 552.8H215.224V556.594ZM215.222 556.916L219.016 556.916L215.222 556.916ZM292.462 556.594V552.8H288.61L288.668 556.651L292.462 556.594ZM292.464 556.594V560.389H296.259V556.594H292.464ZM215.222 479.045H292.464V471.456H215.222V479.045ZM219.016 556.594V475.25H211.427V556.594H219.016ZM215.224 552.8H215.222V560.389H215.224V552.8ZM219.016 556.916C219.016 556.828 219.017 556.739 219.018 556.651L211.43 556.538C211.428 556.664 211.427 556.79 211.427 556.916L219.016 556.916ZM253.843 581.73C243.909 581.73 235.064 578.742 228.792 574.096C222.52 569.449 219.016 563.333 219.016 556.916L211.427 556.916C211.427 566.299 216.569 574.487 224.275 580.194C231.981 585.903 242.447 589.319 253.843 589.319V581.73ZM288.669 556.916C288.669 563.333 285.166 569.449 278.894 574.096C272.621 578.742 263.777 581.73 253.843 581.73V589.319C265.239 589.319 275.705 585.903 283.411 580.194C291.116 574.487 296.259 566.299 296.259 556.916H288.669ZM288.668 556.651C288.669 556.739 288.669 556.828 288.669 556.916H296.259C296.259 556.79 296.258 556.664 296.256 556.538L288.668 556.651ZM292.464 552.8H292.462V560.389H292.464V552.8ZM288.67 475.25V556.594H296.259V475.25H288.67Z" fill="#211D50"/>
<ellipse cx="253.843" cy="475.372" rx="38.6212" ry="27.464" fill="white" stroke="#211D50" stroke-width="7.58936"/>
<path fill-rule="evenodd" clip-rule="evenodd" d="M282.831 426.228C267.131 435.38 241.581 435.38 225.781 426.228L15.9178 304.752C0.100368 295.601 0.0165508 280.77 15.7331 271.619L224.167 150.125C239.867 140.974 265.417 140.974 281.217 150.125L491.08 271.619C506.898 280.77 506.981 295.601 491.281 304.752L282.831 426.228ZM299.299 346.62C299.299 363.42 278.947 377.038 253.842 377.038C228.737 377.038 208.385 363.42 208.385 346.62C208.385 329.82 228.737 316.201 253.842 316.201C278.947 316.201 299.299 329.82 299.299 346.62ZM314.249 287.351C308.276 283.781 309.856 274.725 316.686 273.388L388.458 259.348C394.294 258.206 399.117 263.917 397.014 269.48L379.458 315.921C377.786 320.342 372.523 322.177 368.466 319.752L314.249 287.351ZM75.6056 283.631C72.2006 285.593 72.1814 288.78 75.5649 290.743L124.599 319.193C127.983 321.156 133.495 321.156 136.9 319.193L187.409 290.076C190.814 288.113 190.833 284.924 187.452 282.961L138.418 254.511C135.034 252.549 129.522 252.549 126.117 254.511L75.6056 283.631ZM260.801 189.989C257.866 187.176 253.235 187.176 250.299 189.989L243.55 196.456C241.913 198.025 239.659 198.78 237.407 198.513L226.923 197.272C221.637 196.646 217.382 201.541 218.736 206.689C219.663 210.212 217.942 213.894 214.644 215.442L214.131 215.683C208.312 218.415 208.312 226.691 214.131 229.423L214.644 229.664C217.942 231.212 219.663 234.895 218.736 238.418C217.382 243.565 221.637 248.46 226.923 247.834L237.407 246.593C239.659 246.327 241.913 247.081 243.55 248.65L250.299 255.118C253.235 257.931 257.866 257.931 260.801 255.118L267.55 248.65C269.188 247.081 271.441 246.327 273.693 246.593L284.177 247.834C289.463 248.46 293.719 243.565 292.364 238.418C291.437 234.895 293.159 231.212 296.456 229.664L296.97 229.423C302.788 226.691 302.788 218.415 296.97 215.683L296.456 215.442C293.159 213.894 291.437 210.212 292.364 206.689C293.719 201.541 289.463 196.646 284.177 197.272L273.693 198.513C271.441 198.78 269.188 198.025 267.55 196.456L260.801 189.989Z" fill="white"/>
<path d="M225.781 426.228L227.683 422.945L227.682 422.944L225.781 426.228ZM282.831 426.228L280.92 422.95L280.92 422.95L282.831 426.228ZM15.9178 304.752L17.8188 301.468L17.8181 301.467L15.9178 304.752ZM15.7331 271.619L17.6426 274.898L17.6441 274.897L15.7331 271.619ZM224.167 150.125L226.078 153.404L226.078 153.404L224.167 150.125ZM281.217 150.125L279.316 153.409L279.316 153.409L281.217 150.125ZM491.08 271.619L489.179 274.903L489.18 274.903L491.08 271.619ZM491.281 304.752L493.192 308.031L493.192 308.03L491.281 304.752ZM316.686 273.388L315.957 269.664L315.957 269.664L316.686 273.388ZM314.249 287.351L316.196 284.094L316.196 284.094L314.249 287.351ZM388.458 259.348L389.186 263.072L389.186 263.072L388.458 259.348ZM397.014 269.48L400.563 270.822L400.563 270.822L397.014 269.48ZM379.458 315.921L383.007 317.263L383.007 317.263L379.458 315.921ZM368.466 319.752L370.412 316.494L370.412 316.494L368.466 319.752ZM75.5649 290.743L77.4692 287.461L77.469 287.461L75.5649 290.743ZM75.6056 283.631L77.5007 286.918L77.5008 286.918L75.6056 283.631ZM124.599 319.193L122.695 322.475L122.695 322.475L124.599 319.193ZM136.9 319.193L138.795 322.48L138.795 322.48L136.9 319.193ZM187.409 290.076L185.514 286.788L185.514 286.789L187.409 290.076ZM187.452 282.961L189.357 279.679L189.357 279.679L187.452 282.961ZM138.418 254.511L140.322 251.229L140.322 251.229L138.418 254.511ZM126.117 254.511L124.222 251.224L124.222 251.224L126.117 254.511ZM250.299 189.989L252.925 192.729L252.925 192.729L250.299 189.989ZM260.801 189.989L263.426 187.249L263.426 187.249L260.801 189.989ZM243.55 196.456L240.925 193.716L240.925 193.716L243.55 196.456ZM237.407 198.513L237.853 194.745L237.853 194.745L237.407 198.513ZM226.923 197.272L226.477 201.04L226.477 201.04L226.923 197.272ZM218.736 206.689L215.066 207.654L215.066 207.654L218.736 206.689ZM214.644 215.442L213.031 212.007L213.031 212.007L214.644 215.442ZM214.131 215.683L215.743 219.118L215.743 219.118L214.131 215.683ZM214.131 229.423L215.743 225.988L215.743 225.988L214.131 229.423ZM214.644 229.664L213.031 233.099L213.031 233.099L214.644 229.664ZM218.736 238.418L215.066 237.452L215.066 237.452L218.736 238.418ZM226.923 247.834L227.369 251.603L227.369 251.603L226.923 247.834ZM237.407 246.593L237.853 250.362L237.853 250.362L237.407 246.593ZM243.55 248.65L246.176 245.911L246.176 245.911L243.55 248.65ZM250.299 255.118L252.925 252.378L252.925 252.378L250.299 255.118ZM260.801 255.118L263.426 257.858L263.426 257.858L260.801 255.118ZM267.55 248.65L264.925 245.911L264.925 245.911L267.55 248.65ZM273.693 246.593L273.247 250.362L273.247 250.362L273.693 246.593ZM284.177 247.834L283.731 251.603L283.731 251.603L284.177 247.834ZM292.364 238.418L296.034 237.452L296.034 237.452L292.364 238.418ZM296.456 229.664L298.069 233.099L298.069 233.099L296.456 229.664ZM296.97 229.423L295.357 225.988L295.357 225.988L296.97 229.423ZM296.97 215.683L295.357 219.118L295.357 219.118L296.97 215.683ZM296.456 215.442L298.069 212.007L298.069 212.007L296.456 215.442ZM292.364 206.689L296.034 207.654L296.034 207.654L292.364 206.689ZM284.177 197.272L283.731 193.504L283.731 193.504L284.177 197.272ZM273.693 198.513L274.139 202.281L274.139 202.281L273.693 198.513ZM267.55 196.456L264.925 199.196L264.925 199.196L267.55 196.456ZM223.879 429.512C232.491 434.5 243.525 436.887 254.344 436.887C265.161 436.887 276.175 434.501 284.742 429.507L280.92 422.95C273.788 427.108 264.176 429.297 254.344 429.297C244.512 429.297 234.871 427.108 227.683 422.945L223.879 429.512ZM14.0168 308.036L223.88 429.513L227.682 422.944L17.8188 301.468L14.0168 308.036ZM13.8237 268.339C5.26481 273.323 0.161796 280.382 0.205596 288.206C0.249337 296.021 5.41906 303.062 14.0175 308.037L17.8181 301.467C10.5991 297.291 7.81821 292.341 7.79483 288.164C7.77151 283.998 10.4849 279.066 17.6426 274.898L13.8237 268.339ZM222.256 146.847L13.8222 268.34L17.6441 274.897L226.078 153.404L222.256 146.847ZM283.119 146.841C274.507 141.853 263.473 139.467 252.654 139.467C241.837 139.467 230.823 141.853 222.256 146.847L226.078 153.404C233.211 149.246 242.822 147.056 252.654 147.056C262.486 147.056 272.127 149.246 279.316 153.409L283.119 146.841ZM492.981 268.335L283.119 146.841L279.316 153.409L489.179 274.903L492.981 268.335ZM493.192 308.03C501.743 303.046 506.841 295.986 506.794 288.163C506.748 280.35 501.579 273.309 492.981 268.334L489.18 274.903C496.399 279.08 499.18 284.03 499.205 288.208C499.23 292.375 496.519 297.307 489.37 301.474L493.192 308.03ZM284.742 429.507L493.192 308.031L489.371 301.473L280.92 422.95L284.742 429.507ZM253.842 380.833C267.042 380.833 279.164 377.26 288.095 371.283C297.002 365.323 303.094 356.677 303.094 346.62H295.504C295.504 353.363 291.42 359.926 283.875 364.975C276.354 370.008 265.747 373.244 253.842 373.244V380.833ZM204.591 346.62C204.591 356.677 210.683 365.323 219.589 371.283C228.521 377.26 240.642 380.833 253.842 380.833V373.244C241.937 373.244 231.33 370.008 223.81 364.975C216.264 359.926 212.18 353.363 212.18 346.62H204.591ZM253.842 312.407C240.642 312.407 228.521 315.98 219.589 321.957C210.683 327.917 204.591 336.563 204.591 346.62H212.18C212.18 339.877 216.264 333.314 223.81 328.264C231.33 323.232 241.937 319.996 253.842 319.996V312.407ZM303.094 346.62C303.094 336.563 297.002 327.917 288.095 321.957C279.164 315.98 267.042 312.407 253.842 312.407V319.996C265.747 319.996 276.354 323.232 283.875 328.264C291.42 333.314 295.504 339.877 295.504 346.62H303.094ZM315.957 269.664C305.713 271.668 303.342 285.254 312.303 290.609L316.196 284.094C313.209 282.309 313.999 277.781 317.414 277.113L315.957 269.664ZM387.729 255.624L315.957 269.664L317.414 277.113L389.186 263.072L387.729 255.624ZM400.563 270.822C403.718 262.477 396.484 253.912 387.729 255.624L389.186 263.072C392.104 262.501 394.516 265.357 393.464 268.138L400.563 270.822ZM383.007 317.263L400.563 270.822L393.464 268.138L375.908 314.579L383.007 317.263ZM366.519 323.009C372.605 326.646 380.5 323.895 383.007 317.263L375.908 314.579C375.073 316.79 372.441 317.707 370.412 316.494L366.519 323.009ZM312.303 290.609L366.519 323.009L370.412 316.494L316.196 284.094L312.303 290.609ZM77.469 287.461C76.9977 287.187 76.8212 286.972 76.781 286.914C76.7633 286.889 76.7787 286.904 76.798 286.963C76.818 287.023 76.8348 287.109 76.8342 287.209C76.8336 287.309 76.8159 287.392 76.7966 287.449C76.778 287.503 76.7648 287.514 76.7862 287.484C76.8337 287.416 77.0207 287.195 77.5007 286.918L73.7105 280.343C71.3191 281.722 69.2631 284.054 69.245 287.165C69.2268 290.286 71.2686 292.638 73.6607 294.025L77.469 287.461ZM126.504 315.911L77.4692 287.461L73.6605 294.025L122.695 322.475L126.504 315.911ZM135.005 315.905C134.013 316.477 132.478 316.87 130.741 316.87C129.004 316.87 127.479 316.476 126.503 315.911L122.695 322.475C125.103 323.872 128.026 324.46 130.741 324.46C133.458 324.46 136.381 323.872 138.795 322.48L135.005 315.905ZM185.514 286.789L135.005 315.905L138.795 322.48L189.304 293.364L185.514 286.789ZM185.547 286.243C186.017 286.516 186.193 286.731 186.234 286.789C186.251 286.814 186.236 286.799 186.217 286.741C186.197 286.68 186.18 286.595 186.181 286.496C186.181 286.396 186.199 286.314 186.218 286.257C186.237 286.203 186.25 286.193 186.228 286.223C186.181 286.291 185.994 286.512 185.514 286.788L189.304 293.364C191.697 291.984 193.751 289.651 193.77 286.542C193.789 283.421 191.75 281.068 189.357 279.679L185.547 286.243ZM136.514 257.794L185.548 286.243L189.357 279.679L140.322 251.229L136.514 257.794ZM128.013 257.799C129.004 257.228 130.539 256.834 132.276 256.834C134.013 256.834 135.538 257.228 136.514 257.794L140.322 251.229C137.914 249.832 134.991 249.245 132.276 249.245C129.559 249.245 126.636 249.832 124.222 251.224L128.013 257.799ZM77.5008 286.918L128.013 257.799L124.222 251.224L73.7104 280.343L77.5008 286.918ZM252.925 192.729C254.393 191.322 256.708 191.322 258.176 192.729L263.426 187.249C259.023 183.03 252.077 183.03 247.674 187.249L252.925 192.729ZM246.176 199.196L252.925 192.729L247.674 187.249L240.925 193.716L246.176 199.196ZM236.961 202.281C240.339 202.681 243.719 201.549 246.176 199.196L240.925 193.716C240.106 194.501 238.979 194.878 237.853 194.745L236.961 202.281ZM226.477 201.04L236.961 202.281L237.853 194.745L227.369 193.504L226.477 201.04ZM222.406 205.723C221.732 203.163 223.849 200.729 226.477 201.04L227.369 193.504C219.426 192.563 213.031 199.919 215.066 207.654L222.406 205.723ZM216.257 218.877C221.212 216.551 223.799 211.017 222.406 205.723L215.066 207.654C215.527 209.406 214.671 211.237 213.031 212.007L216.257 218.877ZM215.743 219.118L216.257 218.877L213.031 212.007L212.518 212.248L215.743 219.118ZM215.743 225.988C212.834 224.622 212.834 220.484 215.743 219.118L212.518 212.248C203.79 216.346 203.79 228.76 212.518 232.858L215.743 225.988ZM216.257 226.229L215.743 225.988L212.518 232.858L213.031 233.099L216.257 226.229ZM222.406 239.383C223.799 234.089 221.212 228.556 216.257 226.229L213.031 233.099C214.671 233.869 215.527 235.7 215.066 237.452L222.406 239.383ZM226.477 244.066C223.849 244.377 221.732 241.943 222.406 239.383L215.066 237.452C213.031 245.188 219.426 252.543 227.369 251.603L226.477 244.066ZM236.961 242.825L226.477 244.066L227.369 251.603L237.853 250.362L236.961 242.825ZM246.176 245.911C243.719 243.557 240.339 242.425 236.961 242.825L237.853 250.362C238.979 250.229 240.106 250.606 240.925 251.39L246.176 245.911ZM252.925 252.378L246.176 245.911L240.925 251.39L247.674 257.858L252.925 252.378ZM258.176 252.378C256.708 253.784 254.393 253.784 252.925 252.378L247.674 257.858C252.077 262.077 259.023 262.077 263.426 257.858L258.176 252.378ZM264.925 245.911L258.176 252.378L263.426 257.858L270.176 251.39L264.925 245.911ZM274.139 242.825C270.761 242.425 267.381 243.557 264.925 245.911L270.176 251.39C270.994 250.606 272.121 250.229 273.247 250.362L274.139 242.825ZM284.623 244.066L274.139 242.825L273.247 250.362L283.731 251.603L284.623 244.066ZM288.695 239.383C289.368 241.943 287.252 244.377 284.623 244.066L283.731 251.603C291.674 252.543 298.069 245.188 296.034 237.452L288.695 239.383ZM294.844 226.229C289.888 228.556 287.302 234.089 288.695 239.383L296.034 237.452C295.573 235.7 296.429 233.869 298.069 233.099L294.844 226.229ZM295.357 225.988L294.843 226.229L298.069 233.099L298.583 232.858L295.357 225.988ZM295.357 219.118C298.266 220.484 298.266 224.622 295.357 225.988L298.583 232.858C307.31 228.76 307.31 216.346 298.583 212.248L295.357 219.118ZM294.843 218.877L295.357 219.118L298.583 212.248L298.069 212.007L294.843 218.877ZM288.695 205.723C287.302 211.017 289.888 216.551 294.844 218.877L298.069 212.007C296.429 211.237 295.573 209.406 296.034 207.654L288.695 205.723ZM284.623 201.04C287.252 200.729 289.368 203.163 288.695 205.723L296.034 207.654C298.069 199.919 291.674 192.563 283.731 193.504L284.623 201.04ZM274.139 202.281L284.623 201.04L283.731 193.504L273.247 194.745L274.139 202.281ZM264.925 199.196C267.381 201.549 270.761 202.681 274.139 202.281L273.247 194.745C272.121 194.878 270.994 194.501 270.176 193.716L264.925 199.196ZM258.176 192.729L264.925 199.196L270.176 193.716L263.426 187.249L258.176 192.729Z" fill="#211D50"/>
<path fill-rule="evenodd" clip-rule="evenodd" d="M177.61 248.496L177.624 248.496V248.248C177.624 248.248 177.624 248.248 177.624 248.247V188.38L84.6595 190.325V248.798C84.6595 248.801 84.6595 248.803 84.6595 248.805V249.217L84.6972 249.216C84.8555 250.084 85.5117 250.927 86.6672 251.591L125.65 274.014C128.339 275.561 132.722 275.561 135.429 274.014L175.584 251.065C176.833 250.352 177.509 249.432 177.61 248.496Z" fill="white"/>
<path d="M177.624 248.496H181.419C181.419 250.581 179.737 252.275 177.653 252.291L177.624 248.496ZM177.611 248.497L173.838 248.086C174.046 246.172 175.656 244.717 177.582 244.702L177.611 248.497ZM177.624 248.248L173.829 248.248L173.829 248.248L177.624 248.248ZM177.624 248.248L173.829 248.248V248.248H177.624ZM177.624 188.38L177.545 184.586C178.565 184.565 179.55 184.955 180.279 185.669C181.008 186.383 181.419 187.36 181.419 188.38H177.624ZM84.6596 190.325H80.8649C80.8649 188.26 82.5159 186.575 84.5802 186.531L84.6596 190.325ZM84.6596 249.217L84.6892 253.011C83.6777 253.019 82.7049 252.623 81.9868 251.911C81.2688 251.198 80.8649 250.228 80.8649 249.217H84.6596ZM84.6973 249.217L84.6677 245.422C86.512 245.408 88.0995 246.721 88.4304 248.536L84.6973 249.217ZM86.6672 251.591L88.5591 248.302L88.5593 248.302L86.6672 251.591ZM125.65 274.014L123.758 277.304L123.758 277.303L125.65 274.014ZM135.429 274.014L137.312 277.309L137.312 277.309L135.429 274.014ZM175.584 251.066L173.701 247.771L173.701 247.771L175.584 251.066ZM177.653 252.291L177.639 252.291L177.582 244.702L177.595 244.702L177.653 252.291ZM181.419 248.248V248.496H173.829V248.248H181.419ZM173.829 248.248V248.248L181.419 248.247C181.419 248.248 181.419 248.248 181.419 248.248L173.829 248.248ZM181.419 188.38V248.248H173.829V188.38H181.419ZM84.5802 186.531L177.545 184.586L177.703 192.174L84.739 194.119L84.5802 186.531ZM80.8649 248.799V190.325H88.4543V248.799H80.8649ZM88.4543 248.799C88.4543 248.799 88.4543 248.799 88.4543 248.799C88.4543 248.799 88.4543 248.799 88.4543 248.799C88.4543 248.799 88.4543 248.799 88.4543 248.799C88.4543 248.799 88.4543 248.799 88.4543 248.799C88.4543 248.799 88.4543 248.799 88.4543 248.799C88.4543 248.799 88.4543 248.799 88.4543 248.799C88.4543 248.799 88.4543 248.799 88.4543 248.799C88.4543 248.799 88.4543 248.799 88.4543 248.799C88.4543 248.799 88.4543 248.799 88.4543 248.799C88.4543 248.799 88.4543 248.799 88.4543 248.799C88.4543 248.799 88.4543 248.799 88.4543 248.799C88.4543 248.799 88.4543 248.799 88.4543 248.799C88.4543 248.799 88.4543 248.799 88.4543 248.799C88.4543 248.799 88.4543 248.799 88.4543 248.799C88.4543 248.799 88.4543 248.799 88.4543 248.799C88.4543 248.799 88.4543 248.799 88.4543 248.799C88.4543 248.799 88.4543 248.799 88.4543 248.799C88.4543 248.799 88.4543 248.799 88.4543 248.799C88.4543 248.799 88.4543 248.799 88.4543 248.799C88.4543 248.799 88.4543 248.799 88.4543 248.799C88.4543 248.799 88.4543 248.799 88.4543 248.799C88.4543 248.799 88.4543 248.799 88.4543 248.799C88.4543 248.799 88.4543 248.799 88.4543 248.799C88.4543 248.799 88.4543 248.799 88.4543 248.799C88.4543 248.799 88.4543 248.799 88.4543 248.799C88.4543 248.799 88.4543 248.799 88.4543 248.799C88.4543 248.799 88.4543 248.799 88.4543 248.799C88.4543 248.799 88.4543 248.799 88.4543 248.799C88.4543 248.799 88.4543 248.799 88.4543 248.799C88.4543 248.799 88.4543 248.799 88.4543 248.799C88.4543 248.799 88.4543 248.799 88.4543 248.799C88.4543 248.799 88.4543 248.799 88.4543 248.799C88.4543 248.799 88.4543 248.799 88.4543 248.799C88.4543 248.799 88.4543 248.799 88.4543 248.799C88.4543 248.799 88.4543 248.799 88.4543 248.799C88.4543 248.799 88.4543 248.799 88.4543 248.799C88.4543 248.799 88.4543 248.799 88.4543 248.799C88.4543 248.799 88.4543 248.799 88.4543 248.799C88.4543 248.799 88.4543 248.799 88.4543 248.799C88.4543 248.799 88.4543 248.799 88.4543 248.799C88.4543 248.799 88.4543 248.799 88.4543 248.799C88.4543 248.799 88.4543 248.799 88.4543 248.799C88.4543 248.799 88.4543 248.799 88.4543 248.799C88.4543 248.799 88.4543 248.799 88.4543 248.799C88.4543 248.799 88.4543 248.799 88.4543 248.799C88.4543 248.799 88.4543 248.799 88.4543 248.799C88.4543 248.799 88.4543 248.799 88.4543 248.799C88.4543 248.799 88.4543 248.799 88.4543 248.799C88.4543 248.799 88.4543 248.799 88.4543 248.799C88.4543 248.799 88.4543 248.799 88.4543 248.799C88.4543 248.799 88.4543 248.799 88.4543 248.799C88.4543 248.799 88.4543 248.799 88.4543 248.799C88.4543 248.799 88.4543 248.799 88.4543 248.799C88.4543 248.799 88.4543 248.799 88.4543 248.799C88.4543 248.799 88.4543 248.799 88.4543 248.799C88.4543 248.799 88.4543 248.799 88.4543 248.799C88.4543 248.799 88.4543 248.799 88.4543 248.799C88.4543 248.799 88.4543 248.799 88.4543 248.799C88.4543 248.799 88.4543 248.799 88.4543 248.799C88.4543 248.799 88.4543 248.799 88.4543 248.799C88.4543 248.799 88.4543 248.799 88.4543 248.799C88.4543 248.799 88.4543 248.799 88.4543 248.799C88.4543 248.799 88.4543 248.799 88.4543 248.799C88.4543 248.799 88.4543 248.799 88.4543 248.799C88.4543 248.799 88.4543 248.799 88.4543 248.799C88.4543 248.799 88.4543 248.799 88.4543 248.799C88.4543 248.799 88.4543 248.799 88.4543 248.799C88.4543 248.799 88.4543 248.799 88.4543 248.799C88.4543 248.799 88.4543 248.799 88.4543 248.799C88.4543 248.799 88.4543 248.799 88.4543 248.799C88.4543 248.8 88.4543 248.8 88.4543 248.8C88.4543 248.8 88.4543 248.8 88.4543 248.8C88.4543 248.8 88.4543 248.8 88.4543 248.8C88.4543 248.8 88.4543 248.8 88.4543 248.8C88.4543 248.8 88.4543 248.8 88.4543 248.8C88.4543 248.8 88.4543 248.8 88.4543 248.8C88.4543 248.8 88.4543 248.8 88.4543 248.8C88.4543 248.8 88.4543 248.8 88.4543 248.8C88.4543 248.8 88.4543 248.8 88.4543 248.8C88.4543 248.8 88.4543 248.8 88.4543 248.8C88.4543 248.8 88.4543 248.8 88.4543 248.8C88.4543 248.8 88.4543 248.8 88.4543 248.8C88.4543 248.8 88.4543 248.8 88.4543 248.8C88.4543 248.8 88.4543 248.8 88.4543 248.8C88.4543 248.8 88.4543 248.8 88.4543 248.8C88.4543 248.8 88.4543 248.8 88.4543 248.8C88.4543 248.8 88.4543 248.8 88.4543 248.8C88.4543 248.8 88.4543 248.8 88.4543 248.8C88.4543 248.8 88.4543 248.8 88.4543 248.8C88.4543 248.8 88.4543 248.8 88.4543 248.8C88.4543 248.8 88.4543 248.8 88.4543 248.8C88.4543 248.8 88.4543 248.8 88.4543 248.8C88.4543 248.8 88.4543 248.8 88.4543 248.8C88.4543 248.8 88.4543 248.8 88.4543 248.8C88.4543 248.8 88.4543 248.8 88.4543 248.8C88.4543 248.8 88.4543 248.8 88.4543 248.8C88.4543 248.8 88.4543 248.8 88.4543 248.8C88.4543 248.8 88.4543 248.8 88.4543 248.8C88.4543 248.8 88.4543 248.8 88.4543 248.8C88.4543 248.8 88.4543 248.8 88.4543 248.8C88.4543 248.8 88.4543 248.8 88.4543 248.8C88.4543 248.8 88.4543 248.8 88.4543 248.8C88.4543 248.8 88.4543 248.8 88.4543 248.8C88.4543 248.8 88.4543 248.8 88.4543 248.8C88.4543 248.8 88.4543 248.8 88.4543 248.8C88.4543 248.8 88.4543 248.8 88.4543 248.8C88.4543 248.8 88.4543 248.8 88.4543 248.8C88.4543 248.8 88.4543 248.8 88.4543 248.8C88.4543 248.8 88.4543 248.8 88.4543 248.8C88.4543 248.8 88.4543 248.8 88.4543 248.8C88.4543 248.8 88.4543 248.8 88.4543 248.8C88.4543 248.8 88.4543 248.8 88.4543 248.8C88.4543 248.8 88.4543 248.8 88.4543 248.8C88.4543 248.8 88.4543 248.8 88.4543 248.8C88.4543 248.8 88.4543 248.8 88.4543 248.8C88.4543 248.8 88.4543 248.8 88.4543 248.8C88.4543 248.8 88.4543 248.8 88.4543 248.8C88.4543 248.8 88.4543 248.8 88.4543 248.8C88.4543 248.8 88.4543 248.8 88.4543 248.8C88.4543 248.8 88.4543 248.8 88.4543 248.8C88.4543 248.8 88.4543 248.8 88.4543 248.8C88.4543 248.8 88.4543 248.8 88.4543 248.8C88.4543 248.8 88.4543 248.8 88.4543 248.8C88.4543 248.8 88.4543 248.8 88.4543 248.8C88.4543 248.8 88.4543 248.8 88.4543 248.8C88.4543 248.8 88.4543 248.8 88.4543 248.8C88.4543 248.8 88.4543 248.8 88.4543 248.8C88.4543 248.8 88.4543 248.8 88.4543 248.8C88.4543 248.8 88.4543 248.8 88.4543 248.8C88.4543 248.8 88.4543 248.8 88.4543 248.8C88.4543 248.8 88.4543 248.8 88.4543 248.8C88.4543 248.8 88.4543 248.8 88.4543 248.8C88.4543 248.8 88.4543 248.8 88.4543 248.8C88.4543 248.8 88.4543 248.8 88.4543 248.8C88.4543 248.8 88.4543 248.8 88.4543 248.8C88.4543 248.8 88.4543 248.8 88.4543 248.8C88.4543 248.8 88.4543 248.8 88.4543 248.8C88.4543 248.8 88.4543 248.8 88.4543 248.8C88.4543 248.8 88.4543 248.8 88.4543 248.8C88.4543 248.8 88.4543 248.8 88.4543 248.8C88.4543 248.8 88.4543 248.8 88.4543 248.8C88.4543 248.8 88.4543 248.8 88.4543 248.8C88.4543 248.8 88.4543 248.8 88.4543 248.8C88.4543 248.8 88.4543 248.8 88.4543 248.8C88.4543 248.8 88.4543 248.8 88.4543 248.8C88.4543 248.8 88.4543 248.8 88.4543 248.8C88.4543 248.8 88.4543 248.8 88.4543 248.8C88.4543 248.8 88.4543 248.8 88.4543 248.8C88.4543 248.8 88.4543 248.8 88.4543 248.8C88.4543 248.8 88.4543 248.8 88.4543 248.801C88.4543 248.801 88.4543 248.801 88.4543 248.801C88.4543 248.801 88.4543 248.801 88.4543 248.801C88.4543 248.801 88.4543 248.801 88.4543 248.801C88.4543 248.801 88.4543 248.801 88.4543 248.801C88.4543 248.801 88.4543 248.801 88.4543 248.801C88.4543 248.801 88.4543 248.801 88.4543 248.801C88.4543 248.801 88.4543 248.801 88.4543 248.801C88.4543 248.801 88.4543 248.801 88.4543 248.801C88.4543 248.801 88.4543 248.801 88.4543 248.801C88.4543 248.801 88.4543 248.801 88.4543 248.801C88.4543 248.801 88.4543 248.801 88.4543 248.801C88.4543 248.801 88.4543 248.801 88.4543 248.801C88.4543 248.801 88.4543 248.801 88.4543 248.801C88.4543 248.801 88.4543 248.801 88.4543 248.801C88.4543 248.801 88.4543 248.801 88.4543 248.801C88.4543 248.801 88.4543 248.801 88.4543 248.801C88.4543 248.801 88.4543 248.801 88.4543 248.801C88.4543 248.801 88.4543 248.801 88.4543 248.801C88.4543 248.801 88.4543 248.801 88.4543 248.801C88.4543 248.801 88.4543 248.801 88.4543 248.801C88.4543 248.801 88.4543 248.801 88.4543 248.801C88.4543 248.801 88.4543 248.801 88.4543 248.801C88.4543 248.801 88.4543 248.801 88.4543 248.801C88.4543 248.801 88.4543 248.801 88.4543 248.801C88.4543 248.801 88.4543 248.801 88.4543 248.801C88.4543 248.801 88.4543 248.801 88.4543 248.801C88.4543 248.801 88.4543 248.801 88.4543 248.801C88.4543 248.801 88.4543 248.801 88.4543 248.801C88.4543 248.801 88.4543 248.801 88.4543 248.801C88.4543 248.801 88.4543 248.801 88.4543 248.801C88.4543 248.801 88.4543 248.801 88.4543 248.801C88.4543 248.801 88.4543 248.801 88.4543 248.801C88.4543 248.801 88.4543 248.801 88.4543 248.801C88.4543 248.801 88.4543 248.801 88.4543 248.801C88.4543 248.801 88.4543 248.801 88.4543 248.801C88.4543 248.801 88.4543 248.801 88.4543 248.801C88.4543 248.801 88.4543 248.801 88.4543 248.801C88.4543 248.801 88.4543 248.801 88.4543 248.801C88.4543 248.801 88.4543 248.801 88.4543 248.801C88.4543 248.801 88.4543 248.801 88.4543 248.801C88.4543 248.801 88.4543 248.801 88.4543 248.801C88.4543 248.801 88.4543 248.801 88.4543 248.801C88.4543 248.801 88.4543 248.801 88.4543 248.801C88.4543 248.801 88.4543 248.801 88.4543 248.801C88.4543 248.801 88.4543 248.801 88.4543 248.801C88.4543 248.801 88.4543 248.801 88.4543 248.801C88.4543 248.801 88.4543 248.801 88.4543 248.801C88.4543 248.801 88.4543 248.801 88.4543 248.801C88.4543 248.801 88.4543 248.801 88.4543 248.801C88.4543 248.801 88.4543 248.801 88.4543 248.801C88.4543 248.801 88.4543 248.801 88.4543 248.801C88.4543 248.801 88.4543 248.801 88.4543 248.801C88.4543 248.801 88.4543 248.801 88.4543 248.801C88.4543 248.801 88.4543 248.801 88.4543 248.801C88.4543 248.801 88.4543 248.801 88.4543 248.801C88.4543 248.801 88.4543 248.801 88.4543 248.801C88.4543 248.801 88.4543 248.801 88.4543 248.801C88.4543 248.801 88.4543 248.801 88.4543 248.801C88.4543 248.801 88.4543 248.801 88.4543 248.801C88.4543 248.801 88.4543 248.801 88.4543 248.801C88.4543 248.801 88.4543 248.801 88.4543 248.801C88.4543 248.801 88.4543 248.801 88.4543 248.801C88.4543 248.801 88.4543 248.801 88.4543 248.801C88.4543 248.801 88.4543 248.801 88.4543 248.801C88.4543 248.801 88.4543 248.801 88.4543 248.801C88.4543 248.801 88.4543 248.801 88.4543 248.801C88.4543 248.801 88.4543 248.801 88.4543 248.801C88.4543 248.801 88.4543 248.801 88.4543 248.801C88.4543 248.801 88.4543 248.801 88.4543 248.801C88.4543 248.801 88.4543 248.801 88.4543 248.801C88.4543 248.801 88.4543 248.801 88.4543 248.801C88.4543 248.801 88.4543 248.801 88.4543 248.801C88.4543 248.801 88.4543 248.801 88.4543 248.801C88.4543 248.801 88.4543 248.801 88.4543 248.801C88.4543 248.801 88.4543 248.801 88.4543 248.801C88.4543 248.801 88.4543 248.801 88.4543 248.801C88.4543 248.801 88.4543 248.801 88.4543 248.801C88.4543 248.801 88.4543 248.801 88.4543 248.801C88.4543 248.801 88.4543 248.801 88.4543 248.801C88.4543 248.801 88.4543 248.801 88.4543 248.802C88.4543 248.802 88.4543 248.802 88.4543 248.802C88.4543 248.802 88.4543 248.802 88.4543 248.802C88.4543 248.802 88.4543 248.802 88.4543 248.802C88.4543 248.802 88.4543 248.802 88.4543 248.802C88.4543 248.802 88.4543 248.802 88.4543 248.802C88.4543 248.802 88.4543 248.802 88.4543 248.802C88.4543 248.802 88.4543 248.802 88.4543 248.802C88.4543 248.802 88.4543 248.802 88.4543 248.802C88.4543 248.802 88.4543 248.802 88.4543 248.802C88.4543 248.802 88.4543 248.802 88.4543 248.802C88.4543 248.802 88.4543 248.802 88.4543 248.802C88.4543 248.802 88.4543 248.802 88.4543 248.802C88.4543 248.802 88.4543 248.802 88.4543 248.802C88.4543 248.802 88.4543 248.802 88.4543 248.802C88.4543 248.802 88.4543 248.802 88.4543 248.802C88.4543 248.802 88.4543 248.802 88.4543 248.802C88.4543 248.802 88.4543 248.802 88.4543 248.802C88.4543 248.802 88.4543 248.802 88.4543 248.802C88.4543 248.802 88.4543 248.802 88.4543 248.802C88.4543 248.802 88.4543 248.802 88.4543 248.802C88.4543 248.802 88.4543 248.802 88.4543 248.802C88.4543 248.802 88.4543 248.802 88.4543 248.802C88.4543 248.802 88.4543 248.802 88.4543 248.802C88.4543 248.802 88.4543 248.802 88.4543 248.802C88.4543 248.802 88.4543 248.802 88.4543 248.802C88.4543 248.802 88.4543 248.802 88.4543 248.802C88.4543 248.802 88.4543 248.802 88.4543 248.802C88.4543 248.802 88.4543 248.802 88.4543 248.802C88.4543 248.802 88.4543 248.802 88.4543 248.802C88.4543 248.802 88.4543 248.802 88.4543 248.802C88.4543 248.802 88.4543 248.802 88.4543 248.802C88.4543 248.802 88.4543 248.802 88.4543 248.802C88.4543 248.802 88.4543 248.802 88.4543 248.802C88.4543 248.802 88.4543 248.802 88.4543 248.802C88.4543 248.802 88.4543 248.802 88.4543 248.802C88.4543 248.802 88.4543 248.802 88.4543 248.802C88.4543 248.802 88.4543 248.802 88.4543 248.802C88.4543 248.802 88.4543 248.802 88.4543 248.802C88.4543 248.802 88.4543 248.802 88.4543 248.802C88.4543 248.802 88.4543 248.802 88.4543 248.802C88.4543 248.802 88.4543 248.802 88.4543 248.802C88.4543 248.802 88.4543 248.802 88.4543 248.802C88.4543 248.802 88.4543 248.802 88.4543 248.802C88.4543 248.802 88.4543 248.802 88.4543 248.802C88.4543 248.802 88.4543 248.802 88.4543 248.802C88.4543 248.802 88.4543 248.802 88.4543 248.802C88.4543 248.802 88.4543 248.802 88.4543 248.802C88.4543 248.802 88.4543 248.802 88.4543 248.802C88.4543 248.802 88.4543 248.802 88.4543 248.802C88.4543 248.802 88.4543 248.802 88.4543 248.802C88.4543 248.802 88.4543 248.802 88.4543 248.802C88.4543 248.802 88.4543 248.802 88.4543 248.802C88.4543 248.802 88.4543 248.802 88.4543 248.802C88.4543 248.802 88.4543 248.802 88.4543 248.802C88.4543 248.802 88.4543 248.802 88.4543 248.802C88.4543 248.802 88.4543 248.802 88.4543 248.802C88.4543 248.802 88.4543 248.802 88.4543 248.802C88.4543 248.802 88.4543 248.802 88.4543 248.802C88.4543 248.802 88.4543 248.802 88.4543 248.802C88.4543 248.802 88.4543 248.802 88.4543 248.802C88.4543 248.802 88.4543 248.802 88.4543 248.802C88.4543 248.802 88.4543 248.802 88.4543 248.802C88.4543 248.802 88.4543 248.802 88.4543 248.802C88.4543 248.802 88.4543 248.802 88.4543 248.802C88.4543 248.802 88.4543 248.802 88.4543 248.802C88.4543 248.802 88.4543 248.802 88.4543 248.802C88.4543 248.802 88.4543 248.802 88.4543 248.802C88.4543 248.802 88.4543 248.802 88.4543 248.802C88.4543 248.802 88.4543 248.802 88.4543 248.802C88.4543 248.802 88.4543 248.802 88.4543 248.802C88.4543 248.802 88.4543 248.802 88.4543 248.802C88.4543 248.802 88.4543 248.802 88.4543 248.802C88.4543 248.802 88.4543 248.802 88.4543 248.802C88.4543 248.802 88.4543 248.802 88.4543 248.802C88.4543 248.802 88.4543 248.802 88.4543 248.802C88.4543 248.802 88.4543 248.802 88.4543 248.802C88.4543 248.802 88.4543 248.802 88.4543 248.802C88.4543 248.802 88.4543 248.802 88.4543 248.802C88.4543 248.802 88.4543 248.802 88.4543 248.802C88.4543 248.802 88.4543 248.802 88.4543 248.803C88.4543 248.803 88.4543 248.803 88.4543 248.803C88.4543 248.803 88.4543 248.803 88.4543 248.803C88.4543 248.803 88.4543 248.803 88.4543 248.803C88.4543 248.803 88.4543 248.803 88.4543 248.803C88.4543 248.803 88.4543 248.803 88.4543 248.803C88.4543 248.803 88.4543 248.803 88.4543 248.803C88.4543 248.803 88.4543 248.803 88.4543 248.803C88.4543 248.803 88.4543 248.803 88.4543 248.803C88.4543 248.803 88.4543 248.803 88.4543 248.803C88.4543 248.803 88.4543 248.803 88.4543 248.803C88.4543 248.803 88.4543 248.803 88.4543 248.803C88.4543 248.803 88.4543 248.803 88.4543 248.803C88.4543 248.803 88.4543 248.803 88.4543 248.803C88.4543 248.803 88.4543 248.803 88.4543 248.803C88.4543 248.803 88.4543 248.803 88.4543 248.803C88.4543 248.803 88.4543 248.803 88.4543 248.803C88.4543 248.803 88.4543 248.803 88.4543 248.803C88.4543 248.803 88.4543 248.803 88.4543 248.803C88.4543 248.803 88.4543 248.803 88.4543 248.803C88.4543 248.803 88.4543 248.803 88.4543 248.803C88.4543 248.803 88.4543 248.803 88.4543 248.803C88.4543 248.803 88.4543 248.803 88.4543 248.803C88.4543 248.803 88.4543 248.803 88.4543 248.803C88.4543 248.803 88.4543 248.803 88.4543 248.803C88.4543 248.803 88.4543 248.803 88.4543 248.803C88.4543 248.803 88.4543 248.803 88.4543 248.803C88.4543 248.803 88.4543 248.803 88.4543 248.803C88.4543 248.803 88.4543 248.803 88.4543 248.803C88.4543 248.803 88.4543 248.803 88.4543 248.803C88.4543 248.803 88.4543 248.803 88.4543 248.803C88.4543 248.803 88.4543 248.803 88.4543 248.803C88.4543 248.803 88.4543 248.803 88.4543 248.803C88.4543 248.803 88.4543 248.803 88.4543 248.803C88.4543 248.803 88.4543 248.803 88.4543 248.803C88.4543 248.803 88.4543 248.803 88.4543 248.803C88.4543 248.803 88.4543 248.803 88.4543 248.803C88.4543 248.803 88.4543 248.803 88.4543 248.803C88.4543 248.803 88.4543 248.803 88.4543 248.803C88.4543 248.803 88.4543 248.803 88.4543 248.803C88.4543 248.803 88.4543 248.803 88.4543 248.803C88.4543 248.803 88.4543 248.803 88.4543 248.803C88.4543 248.803 88.4543 248.803 88.4543 248.803C88.4543 248.803 88.4543 248.803 88.4543 248.803C88.4543 248.803 88.4543 248.803 88.4543 248.803C88.4543 248.803 88.4543 248.803 88.4543 248.803C88.4543 248.803 88.4543 248.803 88.4543 248.803C88.4543 248.803 88.4543 248.803 88.4543 248.803C88.4543 248.803 88.4543 248.803 88.4543 248.803C88.4543 248.803 88.4543 248.803 88.4543 248.803C88.4543 248.803 88.4543 248.803 88.4543 248.803C88.4543 248.803 88.4543 248.803 88.4543 248.803C88.4543 248.803 88.4543 248.803 88.4543 248.803C88.4543 248.803 88.4543 248.803 88.4543 248.803C88.4543 248.803 88.4543 248.803 88.4543 248.803C88.4543 248.803 88.4543 248.803 88.4543 248.803C88.4543 248.803 88.4543 248.803 88.4543 248.803C88.4543 248.803 88.4543 248.803 88.4543 248.803C88.4543 248.803 88.4543 248.803 88.4543 248.803C88.4543 248.803 88.4543 248.803 88.4543 248.803C88.4543 248.803 88.4543 248.803 88.4543 248.803C88.4543 248.803 88.4543 248.803 88.4543 248.803C88.4543 248.803 88.4543 248.803 88.4543 248.803C88.4543 248.803 88.4543 248.803 88.4543 248.803C88.4543 248.803 88.4543 248.803 88.4543 248.803C88.4543 248.803 88.4543 248.803 88.4543 248.803C88.4543 248.803 88.4543 248.803 88.4543 248.803C88.4543 248.803 88.4543 248.803 88.4543 248.803C88.4543 248.803 88.4543 248.803 88.4543 248.803C88.4543 248.803 88.4543 248.803 88.4543 248.803C88.4543 248.803 88.4543 248.803 88.4543 248.803C88.4543 248.803 88.4543 248.803 88.4543 248.803C88.4543 248.803 88.4543 248.803 88.4543 248.803C88.4543 248.803 88.4543 248.803 88.4543 248.803C88.4543 248.803 88.4543 248.803 88.4543 248.803C88.4543 248.803 88.4543 248.803 88.4543 248.803C88.4543 248.803 88.4543 248.803 88.4543 248.803C88.4543 248.803 88.4543 248.803 88.4543 248.803C88.4543 248.803 88.4543 248.803 88.4543 248.803C88.4543 248.803 88.4543 248.803 88.4543 248.803C88.4543 248.803 88.4543 248.804 88.4543 248.804C88.4543 248.804 88.4543 248.804 88.4543 248.804C88.4543 248.804 88.4543 248.804 88.4543 248.804C88.4543 248.804 88.4543 248.804 88.4543 248.804C88.4543 248.804 88.4543 248.804 88.4543 248.804C88.4543 248.804 88.4543 248.804 88.4543 248.804C88.4543 248.804 88.4543 248.804 88.4543 248.804C88.4543 248.804 88.4543 248.804 88.4543 248.804C88.4543 248.804 88.4543 248.804 88.4543 248.804C88.4543 248.804 88.4543 248.804 88.4543 248.804C88.4543 248.804 88.4543 248.804 88.4543 248.804C88.4543 248.804 88.4543 248.804 88.4543 248.804C88.4543 248.804 88.4543 248.804 88.4543 248.804C88.4543 248.804 88.4543 248.804 88.4543 248.804C88.4543 248.804 88.4543 248.804 88.4543 248.804C88.4543 248.804 88.4543 248.804 88.4543 248.804C88.4543 248.804 88.4543 248.804 88.4543 248.804C88.4543 248.804 88.4543 248.804 88.4543 248.804C88.4543 248.804 88.4543 248.804 88.4543 248.804C88.4543 248.804 88.4543 248.804 88.4543 248.804C88.4543 248.804 88.4543 248.804 88.4543 248.804C88.4543 248.804 88.4543 248.804 88.4543 248.804C88.4543 248.804 88.4543 248.804 88.4543 248.804C88.4543 248.804 88.4543 248.804 88.4543 248.804C88.4543 248.804 88.4543 248.804 88.4543 248.804C88.4543 248.804 88.4543 248.804 88.4543 248.804C88.4543 248.804 88.4543 248.804 88.4543 248.804C88.4543 248.804 88.4543 248.804 88.4543 248.804C88.4543 248.804 88.4543 248.804 88.4543 248.804C88.4543 248.804 88.4543 248.804 88.4543 248.804C88.4543 248.804 88.4543 248.804 88.4543 248.804C88.4543 248.804 88.4543 248.804 88.4543 248.804C88.4543 248.804 88.4543 248.804 88.4543 248.804C88.4543 248.804 88.4543 248.804 88.4543 248.804C88.4543 248.804 88.4543 248.804 88.4543 248.804C88.4543 248.804 88.4543 248.804 88.4543 248.804C88.4543 248.804 88.4543 248.804 88.4543 248.804C88.4543 248.804 88.4543 248.804 88.4543 248.804C88.4543 248.804 88.4543 248.804 88.4543 248.804C88.4543 248.804 88.4543 248.804 88.4543 248.804C88.4543 248.804 88.4543 248.804 88.4543 248.804C88.4543 248.804 88.4543 248.804 88.4543 248.804C88.4543 248.804 88.4543 248.804 88.4543 248.804C88.4543 248.804 88.4543 248.804 88.4543 248.804C88.4543 248.804 88.4543 248.804 88.4543 248.804C88.4543 248.804 88.4543 248.804 88.4543 248.804C88.4543 248.804 88.4543 248.804 88.4543 248.804C88.4543 248.804 88.4543 248.804 88.4543 248.804C88.4543 248.804 88.4543 248.804 88.4543 248.804C88.4543 248.804 88.4543 248.804 88.4543 248.804C88.4543 248.804 88.4543 248.804 88.4543 248.804C88.4543 248.804 88.4543 248.804 88.4543 248.804C88.4543 248.804 88.4543 248.804 88.4543 248.804C88.4543 248.804 88.4543 248.804 88.4543 248.804C88.4543 248.804 88.4543 248.804 88.4543 248.804C88.4543 248.804 88.4543 248.804 88.4543 248.804C88.4543 248.804 88.4543 248.804 88.4543 248.804C88.4543 248.804 88.4543 248.804 88.4543 248.804C88.4543 248.804 88.4543 248.804 88.4543 248.804C88.4543 248.804 88.4543 248.804 88.4543 248.804C88.4543 248.804 88.4543 248.804 88.4543 248.804C88.4543 248.804 88.4543 248.804 88.4543 248.804C88.4543 248.804 88.4543 248.804 88.4543 248.804C88.4543 248.804 88.4543 248.804 88.4543 248.804C88.4543 248.804 88.4543 248.804 88.4543 248.804C88.4543 248.804 88.4543 248.804 88.4543 248.804C88.4543 248.804 88.4543 248.804 88.4543 248.804C88.4543 248.804 88.4543 248.804 88.4543 248.804C88.4543 248.804 88.4543 248.804 88.4543 248.804C88.4543 248.804 88.4543 248.804 88.4543 248.804C88.4543 248.804 88.4543 248.804 88.4543 248.804C88.4543 248.804 88.4543 248.804 88.4543 248.804C88.4543 248.804 88.4543 248.804 88.4543 248.804C88.4543 248.804 88.4543 248.804 88.4543 248.804C88.4543 248.804 88.4543 248.804 88.4543 248.804C88.4543 248.804 88.4543 248.804 88.4543 248.804C88.4543 248.804 88.4543 248.804 88.4543 248.804C88.4543 248.804 88.4543 248.804 88.4543 248.804C88.4543 248.804 88.4543 248.804 88.4543 248.804C88.4543 248.804 88.4543 248.804 88.4543 248.804C88.4543 248.804 88.4543 248.805 88.4543 248.805C88.4543 248.805 88.4543 248.805 88.4543 248.805C88.4543 248.805 88.4543 248.805 88.4543 248.805C88.4543 248.805 88.4543 248.805 88.4543 248.805C88.4543 248.805 88.4543 248.805 88.4543 248.805C88.4543 248.805 88.4543 248.805 88.4543 248.805C88.4543 248.805 88.4543 248.805 88.4543 248.805C88.4543 248.805 88.4543 248.805 88.4543 248.805C88.4543 248.805 88.4543 248.805 88.4543 248.805C88.4543 248.805 88.4543 248.805 88.4543 248.805C88.4543 248.805 88.4543 248.805 88.4543 248.805C88.4543 248.805 88.4543 248.805 88.4543 248.805C88.4543 248.805 88.4543 248.805 88.4543 248.805C88.4543 248.805 88.4543 248.805 88.4543 248.805C88.4543 248.805 88.4543 248.805 88.4543 248.805C88.4543 248.805 88.4543 248.805 88.4543 248.805C88.4543 248.805 88.4543 248.805 88.4543 248.805C88.4543 248.805 88.4543 248.805 88.4543 248.805C88.4543 248.805 88.4543 248.805 88.4543 248.805C88.4543 248.805 88.4543 248.805 88.4543 248.805C88.4543 248.805 88.4543 248.805 88.4543 248.805C88.4543 248.805 88.4543 248.805 88.4543 248.805C88.4543 248.805 88.4543 248.805 88.4543 248.805C88.4543 248.805 88.4543 248.805 88.4543 248.805C88.4543 248.805 88.4543 248.805 88.4543 248.805C88.4543 248.805 88.4543 248.805 88.4543 248.805C88.4543 248.805 88.4543 248.805 88.4543 248.805C88.4543 248.805 88.4543 248.805 88.4543 248.805C88.4543 248.805 88.4543 248.805 88.4543 248.805C88.4543 248.805 88.4543 248.805 88.4543 248.805C88.4543 248.805 88.4543 248.805 88.4543 248.805C88.4543 248.805 88.4543 248.805 88.4543 248.805C88.4543 248.805 88.4543 248.805 88.4543 248.805C88.4543 248.805 88.4543 248.805 88.4543 248.805C88.4543 248.805 88.4543 248.805 88.4543 248.805C88.4543 248.805 88.4543 248.805 88.4543 248.805C88.4543 248.805 88.4543 248.805 88.4543 248.805C88.4543 248.805 88.4543 248.805 88.4543 248.805C88.4543 248.805 88.4543 248.805 88.4543 248.805C88.4543 248.805 88.4543 248.805 88.4543 248.805C88.4543 248.805 88.4543 248.805 88.4543 248.805C88.4543 248.805 88.4543 248.805 88.4543 248.805C88.4543 248.805 88.4543 248.805 88.4543 248.805H80.8649C80.8649 248.805 80.8649 248.805 80.8649 248.805C80.8649 248.805 80.8649 248.805 80.8649 248.805C80.8649 248.805 80.8649 248.805 80.8649 248.805C80.8649 248.805 80.8649 248.805 80.8649 248.805C80.8649 248.805 80.8649 248.805 80.8649 248.805C80.8649 248.805 80.8649 248.805 80.8649 248.805C80.8649 248.805 80.8649 248.805 80.8649 248.805C80.8649 248.805 80.8649 248.805 80.8649 248.805C80.8649 248.805 80.8649 248.805 80.8649 248.805C80.8649 248.805 80.8649 248.805 80.8649 248.805C80.8649 248.805 80.8649 248.805 80.8649 248.805C80.8649 248.805 80.8649 248.805 80.8649 248.805C80.8649 248.805 80.8649 248.805 80.8649 248.805C80.8649 248.805 80.8649 248.805 80.8649 248.805C80.8649 248.805 80.8649 248.805 80.8649 248.805C80.8649 248.805 80.8649 248.805 80.8649 248.805C80.8649 248.805 80.8649 248.805 80.8649 248.805C80.8649 248.805 80.8649 248.805 80.8649 248.805C80.8649 248.805 80.8649 248.805 80.8649 248.805C80.8649 248.805 80.8649 248.805 80.8649 248.805C80.8649 248.805 80.8649 248.805 80.8649 248.805C80.8649 248.805 80.8649 248.805 80.8649 248.805C80.8649 248.805 80.8649 248.805 80.8649 248.805C80.8649 248.805 80.8649 248.805 80.8649 248.805C80.8649 248.805 80.8649 248.805 80.8649 248.805C80.8649 248.805 80.8649 248.805 80.8649 248.805C80.8649 248.805 80.8649 248.805 80.8649 248.805C80.8649 248.805 80.8649 248.805 80.8649 248.805C80.8649 248.805 80.8649 248.805 80.8649 248.805C80.8649 248.805 80.8649 248.805 80.8649 248.805C80.8649 248.805 80.8649 248.805 80.8649 248.805C80.8649 248.805 80.8649 248.805 80.8649 248.805C80.8649 248.805 80.8649 248.805 80.8649 248.805C80.8649 248.805 80.8649 248.805 80.8649 248.805C80.8649 248.805 80.8649 248.805 80.8649 248.805C80.8649 248.805 80.8649 248.805 80.8649 248.805C80.8649 248.805 80.8649 248.805 80.8649 248.805C80.8649 248.805 80.8649 248.805 80.8649 248.805C80.8649 248.805 80.8649 248.805 80.8649 248.805C80.8649 248.805 80.8649 248.805 80.8649 248.805C80.8649 248.805 80.8649 248.805 80.8649 248.805C80.8649 248.805 80.8649 248.805 80.8649 248.805C80.8649 248.805 80.8649 248.804 80.8649 248.804C80.8649 248.804 80.8649 248.804 80.8649 248.804C80.8649 248.804 80.8649 248.804 80.8649 248.804C80.8649 248.804 80.8649 248.804 80.8649 248.804C80.8649 248.804 80.8649 248.804 80.8649 248.804C80.8649 248.804 80.8649 248.804 80.8649 248.804C80.8649 248.804 80.8649 248.804 80.8649 248.804C80.8649 248.804 80.8649 248.804 80.8649 248.804C80.8649 248.804 80.8649 248.804 80.8649 248.804C80.8649 248.804 80.8649 248.804 80.8649 248.804C80.8649 248.804 80.8649 248.804 80.8649 248.804C80.8649 248.804 80.8649 248.804 80.8649 248.804C80.8649 248.804 80.8649 248.804 80.8649 248.804C80.8649 248.804 80.8649 248.804 80.8649 248.804C80.8649 248.804 80.8649 248.804 80.8649 248.804C80.8649 248.804 80.8649 248.804 80.8649 248.804C80.8649 248.804 80.8649 248.804 80.8649 248.804C80.8649 248.804 80.8649 248.804 80.8649 248.804C80.8649 248.804 80.8649 248.804 80.8649 248.804C80.8649 248.804 80.8649 248.804 80.8649 248.804C80.8649 248.804 80.8649 248.804 80.8649 248.804C80.8649 248.804 80.8649 248.804 80.8649 248.804C80.8649 248.804 80.8649 248.804 80.8649 248.804C80.8649 248.804 80.8649 248.804 80.8649 248.804C80.8649 248.804 80.8649 248.804 80.8649 248.804C80.8649 248.804 80.8649 248.804 80.8649 248.804C80.8649 248.804 80.8649 248.804 80.8649 248.804C80.8649 248.804 80.8649 248.804 80.8649 248.804C80.8649 248.804 80.8649 248.804 80.8649 248.804C80.8649 248.804 80.8649 248.804 80.8649 248.804C80.8649 248.804 80.8649 248.804 80.8649 248.804C80.8649 248.804 80.8649 248.804 80.8649 248.804C80.8649 248.804 80.8649 248.804 80.8649 248.804C80.8649 248.804 80.8649 248.804 80.8649 248.804C80.8649 248.804 80.8649 248.804 80.8649 248.804C80.8649 248.804 80.8649 248.804 80.8649 248.804C80.8649 248.804 80.8649 248.804 80.8649 248.804C80.8649 248.804 80.8649 248.804 80.8649 248.804C80.8649 248.804 80.8649 248.804 80.8649 248.804C80.8649 248.804 80.8649 248.804 80.8649 248.804C80.8649 248.804 80.8649 248.804 80.8649 248.804C80.8649 248.804 80.8649 248.804 80.8649 248.804C80.8649 248.804 80.8649 248.804 80.8649 248.804C80.8649 248.804 80.8649 248.804 80.8649 248.804C80.8649 248.804 80.8649 248.804 80.8649 248.804C80.8649 248.804 80.8649 248.804 80.8649 248.804C80.8649 248.804 80.8649 248.804 80.8649 248.804C80.8649 248.804 80.8649 248.804 80.8649 248.804C80.8649 248.804 80.8649 248.804 80.8649 248.804C80.8649 248.804 80.8649 248.804 80.8649 248.804C80.8649 248.804 80.8649 248.804 80.8649 248.804C80.8649 248.804 80.8649 248.804 80.8649 248.804C80.8649 248.804 80.8649 248.804 80.8649 248.804C80.8649 248.804 80.8649 248.804 80.8649 248.804C80.8649 248.804 80.8649 248.804 80.8649 248.804C80.8649 248.804 80.8649 248.804 80.8649 248.804C80.8649 248.804 80.8649 248.804 80.8649 248.804C80.8649 248.804 80.8649 248.804 80.8649 248.804C80.8649 248.804 80.8649 248.804 80.8649 248.804C80.8649 248.804 80.8649 248.804 80.8649 248.804C80.8649 248.804 80.8649 248.804 80.8649 248.804C80.8649 248.804 80.8649 248.804 80.8649 248.804C80.8649 248.804 80.8649 248.804 80.8649 248.804C80.8649 248.804 80.8649 248.804 80.8649 248.804C80.8649 248.804 80.8649 248.804 80.8649 248.804C80.8649 248.804 80.8649 248.804 80.8649 248.804C80.8649 248.804 80.8649 248.804 80.8649 248.804C80.8649 248.804 80.8649 248.804 80.8649 248.804C80.8649 248.804 80.8649 248.804 80.8649 248.804C80.8649 248.804 80.8649 248.804 80.8649 248.804C80.8649 248.804 80.8649 248.804 80.8649 248.804C80.8649 248.804 80.8649 248.804 80.8649 248.804C80.8649 248.804 80.8649 248.804 80.8649 248.804C80.8649 248.804 80.8649 248.804 80.8649 248.804C80.8649 248.804 80.8649 248.804 80.8649 248.804C80.8649 248.804 80.8649 248.804 80.8649 248.804C80.8649 248.804 80.8649 248.804 80.8649 248.804C80.8649 248.804 80.8649 248.804 80.8649 248.804C80.8649 248.804 80.8649 248.804 80.8649 248.804C80.8649 248.804 80.8649 248.804 80.8649 248.804C80.8649 248.804 80.8649 248.803 80.8649 248.803C80.8649 248.803 80.8649 248.803 80.8649 248.803C80.8649 248.803 80.8649 248.803 80.8649 248.803C80.8649 248.803 80.8649 248.803 80.8649 248.803C80.8649 248.803 80.8649 248.803 80.8649 248.803C80.8649 248.803 80.8649 248.803 80.8649 248.803C80.8649 248.803 80.8649 248.803 80.8649 248.803C80.8649 248.803 80.8649 248.803 80.8649 248.803C80.8649 248.803 80.8649 248.803 80.8649 248.803C80.8649 248.803 80.8649 248.803 80.8649 248.803C80.8649 248.803 80.8649 248.803 80.8649 248.803C80.8649 248.803 80.8649 248.803 80.8649 248.803C80.8649 248.803 80.8649 248.803 80.8649 248.803C80.8649 248.803 80.8649 248.803 80.8649 248.803C80.8649 248.803 80.8649 248.803 80.8649 248.803C80.8649 248.803 80.8649 248.803 80.8649 248.803C80.8649 248.803 80.8649 248.803 80.8649 248.803C80.8649 248.803 80.8649 248.803 80.8649 248.803C80.8649 248.803 80.8649 248.803 80.8649 248.803C80.8649 248.803 80.8649 248.803 80.8649 248.803C80.8649 248.803 80.8649 248.803 80.8649 248.803C80.8649 248.803 80.8649 248.803 80.8649 248.803C80.8649 248.803 80.8649 248.803 80.8649 248.803C80.8649 248.803 80.8649 248.803 80.8649 248.803C80.8649 248.803 80.8649 248.803 80.8649 248.803C80.8649 248.803 80.8649 248.803 80.8649 248.803C80.8649 248.803 80.8649 248.803 80.8649 248.803C80.8649 248.803 80.8649 248.803 80.8649 248.803C80.8649 248.803 80.8649 248.803 80.8649 248.803C80.8649 248.803 80.8649 248.803 80.8649 248.803C80.8649 248.803 80.8649 248.803 80.8649 248.803C80.8649 248.803 80.8649 248.803 80.8649 248.803C80.8649 248.803 80.8649 248.803 80.8649 248.803C80.8649 248.803 80.8649 248.803 80.8649 248.803C80.8649 248.803 80.8649 248.803 80.8649 248.803C80.8649 248.803 80.8649 248.803 80.8649 248.803C80.8649 248.803 80.8649 248.803 80.8649 248.803C80.8649 248.803 80.8649 248.803 80.8649 248.803C80.8649 248.803 80.8649 248.803 80.8649 248.803C80.8649 248.803 80.8649 248.803 80.8649 248.803C80.8649 248.803 80.8649 248.803 80.8649 248.803C80.8649 248.803 80.8649 248.803 80.8649 248.803C80.8649 248.803 80.8649 248.803 80.8649 248.803C80.8649 248.803 80.8649 248.803 80.8649 248.803C80.8649 248.803 80.8649 248.803 80.8649 248.803C80.8649 248.803 80.8649 248.803 80.8649 248.803C80.8649 248.803 80.8649 248.803 80.8649 248.803C80.8649 248.803 80.8649 248.803 80.8649 248.803C80.8649 248.803 80.8649 248.803 80.8649 248.803C80.8649 248.803 80.8649 248.803 80.8649 248.803C80.8649 248.803 80.8649 248.803 80.8649 248.803C80.8649 248.803 80.8649 248.803 80.8649 248.803C80.8649 248.803 80.8649 248.803 80.8649 248.803C80.8649 248.803 80.8649 248.803 80.8649 248.803C80.8649 248.803 80.8649 248.803 80.8649 248.803C80.8649 248.803 80.8649 248.803 80.8649 248.803C80.8649 248.803 80.8649 248.803 80.8649 248.803C80.8649 248.803 80.8649 248.803 80.8649 248.803C80.8649 248.803 80.8649 248.803 80.8649 248.803C80.8649 248.803 80.8649 248.803 80.8649 248.803C80.8649 248.803 80.8649 248.803 80.8649 248.803C80.8649 248.803 80.8649 248.803 80.8649 248.803C80.8649 248.803 80.8649 248.803 80.8649 248.803C80.8649 248.803 80.8649 248.803 80.8649 248.803C80.8649 248.803 80.8649 248.803 80.8649 248.803C80.8649 248.803 80.8649 248.803 80.8649 248.803C80.8649 248.803 80.8649 248.803 80.8649 248.803C80.8649 248.803 80.8649 248.803 80.8649 248.803C80.8649 248.803 80.8649 248.803 80.8649 248.803C80.8649 248.803 80.8649 248.803 80.8649 248.803C80.8649 248.803 80.8649 248.803 80.8649 248.803C80.8649 248.803 80.8649 248.803 80.8649 248.803C80.8649 248.803 80.8649 248.803 80.8649 248.803C80.8649 248.803 80.8649 248.803 80.8649 248.803C80.8649 248.803 80.8649 248.803 80.8649 248.803C80.8649 248.803 80.8649 248.803 80.8649 248.803C80.8649 248.803 80.8649 248.803 80.8649 248.803C80.8649 248.803 80.8649 248.803 80.8649 248.803C80.8649 248.803 80.8649 248.803 80.8649 248.803C80.8649 248.803 80.8649 248.803 80.8649 248.803C80.8649 248.802 80.8649 248.802 80.8649 248.802C80.8649 248.802 80.8649 248.802 80.8649 248.802C80.8649 248.802 80.8649 248.802 80.8649 248.802C80.8649 248.802 80.8649 248.802 80.8649 248.802C80.8649 248.802 80.8649 248.802 80.8649 248.802C80.8649 248.802 80.8649 248.802 80.8649 248.802C80.8649 248.802 80.8649 248.802 80.8649 248.802C80.8649 248.802 80.8649 248.802 80.8649 248.802C80.8649 248.802 80.8649 248.802 80.8649 248.802C80.8649 248.802 80.8649 248.802 80.8649 248.802C80.8649 248.802 80.8649 248.802 80.8649 248.802C80.8649 248.802 80.8649 248.802 80.8649 248.802C80.8649 248.802 80.8649 248.802 80.8649 248.802C80.8649 248.802 80.8649 248.802 80.8649 248.802C80.8649 248.802 80.8649 248.802 80.8649 248.802C80.8649 248.802 80.8649 248.802 80.8649 248.802C80.8649 248.802 80.8649 248.802 80.8649 248.802C80.8649 248.802 80.8649 248.802 80.8649 248.802C80.8649 248.802 80.8649 248.802 80.8649 248.802C80.8649 248.802 80.8649 248.802 80.8649 248.802C80.8649 248.802 80.8649 248.802 80.8649 248.802C80.8649 248.802 80.8649 248.802 80.8649 248.802C80.8649 248.802 80.8649 248.802 80.8649 248.802C80.8649 248.802 80.8649 248.802 80.8649 248.802C80.8649 248.802 80.8649 248.802 80.8649 248.802C80.8649 248.802 80.8649 248.802 80.8649 248.802C80.8649 248.802 80.8649 248.802 80.8649 248.802C80.8649 248.802 80.8649 248.802 80.8649 248.802C80.8649 248.802 80.8649 248.802 80.8649 248.802C80.8649 248.802 80.8649 248.802 80.8649 248.802C80.8649 248.802 80.8649 248.802 80.8649 248.802C80.8649 248.802 80.8649 248.802 80.8649 248.802C80.8649 248.802 80.8649 248.802 80.8649 248.802C80.8649 248.802 80.8649 248.802 80.8649 248.802C80.8649 248.802 80.8649 248.802 80.8649 248.802C80.8649 248.802 80.8649 248.802 80.8649 248.802C80.8649 248.802 80.8649 248.802 80.8649 248.802C80.8649 248.802 80.8649 248.802 80.8649 248.802C80.8649 248.802 80.8649 248.802 80.8649 248.802C80.8649 248.802 80.8649 248.802 80.8649 248.802C80.8649 248.802 80.8649 248.802 80.8649 248.802C80.8649 248.802 80.8649 248.802 80.8649 248.802C80.8649 248.802 80.8649 248.802 80.8649 248.802C80.8649 248.802 80.8649 248.802 80.8649 248.802C80.8649 248.802 80.8649 248.802 80.8649 248.802C80.8649 248.802 80.8649 248.802 80.8649 248.802C80.8649 248.802 80.8649 248.802 80.8649 248.802C80.8649 248.802 80.8649 248.802 80.8649 248.802C80.8649 248.802 80.8649 248.802 80.8649 248.802C80.8649 248.802 80.8649 248.802 80.8649 248.802C80.8649 248.802 80.8649 248.802 80.8649 248.802C80.8649 248.802 80.8649 248.802 80.8649 248.802C80.8649 248.802 80.8649 248.802 80.8649 248.802C80.8649 248.802 80.8649 248.802 80.8649 248.802C80.8649 248.802 80.8649 248.802 80.8649 248.802C80.8649 248.802 80.8649 248.802 80.8649 248.802C80.8649 248.802 80.8649 248.802 80.8649 248.802C80.8649 248.802 80.8649 248.802 80.8649 248.802C80.8649 248.802 80.8649 248.802 80.8649 248.802C80.8649 248.802 80.8649 248.802 80.8649 248.802C80.8649 248.802 80.8649 248.802 80.8649 248.802C80.8649 248.802 80.8649 248.802 80.8649 248.802C80.8649 248.802 80.8649 248.802 80.8649 248.802C80.8649 248.802 80.8649 248.802 80.8649 248.802C80.8649 248.802 80.8649 248.802 80.8649 248.802C80.8649 248.802 80.8649 248.802 80.8649 248.802C80.8649 248.802 80.8649 248.802 80.8649 248.802C80.8649 248.802 80.8649 248.802 80.8649 248.802C80.8649 248.802 80.8649 248.802 80.8649 248.802C80.8649 248.802 80.8649 248.802 80.8649 248.802C80.8649 248.802 80.8649 248.802 80.8649 248.802C80.8649 248.802 80.8649 248.802 80.8649 248.802C80.8649 248.802 80.8649 248.802 80.8649 248.802C80.8649 248.802 80.8649 248.802 80.8649 248.802C80.8649 248.802 80.8649 248.802 80.8649 248.802C80.8649 248.802 80.8649 248.802 80.8649 248.802C80.8649 248.802 80.8649 248.802 80.8649 248.802C80.8649 248.802 80.8649 248.802 80.8649 248.802C80.8649 248.802 80.8649 248.802 80.8649 248.802C80.8649 248.802 80.8649 248.802 80.8649 248.802C80.8649 248.801 80.8649 248.801 80.8649 248.801C80.8649 248.801 80.8649 248.801 80.8649 248.801C80.8649 248.801 80.8649 248.801 80.8649 248.801C80.8649 248.801 80.8649 248.801 80.8649 248.801C80.8649 248.801 80.8649 248.801 80.8649 248.801C80.8649 248.801 80.8649 248.801 80.8649 248.801C80.8649 248.801 80.8649 248.801 80.8649 248.801C80.8649 248.801 80.8649 248.801 80.8649 248.801C80.8649 248.801 80.8649 248.801 80.8649 248.801C80.8649 248.801 80.8649 248.801 80.8649 248.801C80.8649 248.801 80.8649 248.801 80.8649 248.801C80.8649 248.801 80.8649 248.801 80.8649 248.801C80.8649 248.801 80.8649 248.801 80.8649 248.801C80.8649 248.801 80.8649 248.801 80.8649 248.801C80.8649 248.801 80.8649 248.801 80.8649 248.801C80.8649 248.801 80.8649 248.801 80.8649 248.801C80.8649 248.801 80.8649 248.801 80.8649 248.801C80.8649 248.801 80.8649 248.801 80.8649 248.801C80.8649 248.801 80.8649 248.801 80.8649 248.801C80.8649 248.801 80.8649 248.801 80.8649 248.801C80.8649 248.801 80.8649 248.801 80.8649 248.801C80.8649 248.801 80.8649 248.801 80.8649 248.801C80.8649 248.801 80.8649 248.801 80.8649 248.801C80.8649 248.801 80.8649 248.801 80.8649 248.801C80.8649 248.801 80.8649 248.801 80.8649 248.801C80.8649 248.801 80.8649 248.801 80.8649 248.801C80.8649 248.801 80.8649 248.801 80.8649 248.801C80.8649 248.801 80.8649 248.801 80.8649 248.801C80.8649 248.801 80.8649 248.801 80.8649 248.801C80.8649 248.801 80.8649 248.801 80.8649 248.801C80.8649 248.801 80.8649 248.801 80.8649 248.801C80.8649 248.801 80.8649 248.801 80.8649 248.801C80.8649 248.801 80.8649 248.801 80.8649 248.801C80.8649 248.801 80.8649 248.801 80.8649 248.801C80.8649 248.801 80.8649 248.801 80.8649 248.801C80.8649 248.801 80.8649 248.801 80.8649 248.801C80.8649 248.801 80.8649 248.801 80.8649 248.801C80.8649 248.801 80.8649 248.801 80.8649 248.801C80.8649 248.801 80.8649 248.801 80.8649 248.801C80.8649 248.801 80.8649 248.801 80.8649 248.801C80.8649 248.801 80.8649 248.801 80.8649 248.801C80.8649 248.801 80.8649 248.801 80.8649 248.801C80.8649 248.801 80.8649 248.801 80.8649 248.801C80.8649 248.801 80.8649 248.801 80.8649 248.801C80.8649 248.801 80.8649 248.801 80.8649 248.801C80.8649 248.801 80.8649 248.801 80.8649 248.801C80.8649 248.801 80.8649 248.801 80.8649 248.801C80.8649 248.801 80.8649 248.801 80.8649 248.801C80.8649 248.801 80.8649 248.801 80.8649 248.801C80.8649 248.801 80.8649 248.801 80.8649 248.801C80.8649 248.801 80.8649 248.801 80.8649 248.801C80.8649 248.801 80.8649 248.801 80.8649 248.801C80.8649 248.801 80.8649 248.801 80.8649 248.801C80.8649 248.801 80.8649 248.801 80.8649 248.801C80.8649 248.801 80.8649 248.801 80.8649 248.801C80.8649 248.801 80.8649 248.801 80.8649 248.801C80.8649 248.801 80.8649 248.801 80.8649 248.801C80.8649 248.801 80.8649 248.801 80.8649 248.801C80.8649 248.801 80.8649 248.801 80.8649 248.801C80.8649 248.801 80.8649 248.801 80.8649 248.801C80.8649 248.801 80.8649 248.801 80.8649 248.801C80.8649 248.801 80.8649 248.801 80.8649 248.801C80.8649 248.801 80.8649 248.801 80.8649 248.801C80.8649 248.801 80.8649 248.801 80.8649 248.801C80.8649 248.801 80.8649 248.801 80.8649 248.801C80.8649 248.801 80.8649 248.801 80.8649 248.801C80.8649 248.801 80.8649 248.801 80.8649 248.801C80.8649 248.801 80.8649 248.801 80.8649 248.801C80.8649 248.801 80.8649 248.801 80.8649 248.801C80.8649 248.801 80.8649 248.801 80.8649 248.801C80.8649 248.801 80.8649 248.801 80.8649 248.801C80.8649 248.801 80.8649 248.801 80.8649 248.801C80.8649 248.801 80.8649 248.801 80.8649 248.801C80.8649 248.801 80.8649 248.801 80.8649 248.801C80.8649 248.801 80.8649 248.801 80.8649 248.801C80.8649 248.801 80.8649 248.801 80.8649 248.801C80.8649 248.801 80.8649 248.801 80.8649 248.801C80.8649 248.801 80.8649 248.801 80.8649 248.801C80.8649 248.801 80.8649 248.801 80.8649 248.801C80.8649 248.801 80.8649 248.801 80.8649 248.801C80.8649 248.8 80.8649 248.8 80.8649 248.8C80.8649 248.8 80.8649 248.8 80.8649 248.8C80.8649 248.8 80.8649 248.8 80.8649 248.8C80.8649 248.8 80.8649 248.8 80.8649 248.8C80.8649 248.8 80.8649 248.8 80.8649 248.8C80.8649 248.8 80.8649 248.8 80.8649 248.8C80.8649 248.8 80.8649 248.8 80.8649 248.8C80.8649 248.8 80.8649 248.8 80.8649 248.8C80.8649 248.8 80.8649 248.8 80.8649 248.8C80.8649 248.8 80.8649 248.8 80.8649 248.8C80.8649 248.8 80.8649 248.8 80.8649 248.8C80.8649 248.8 80.8649 248.8 80.8649 248.8C80.8649 248.8 80.8649 248.8 80.8649 248.8C80.8649 248.8 80.8649 248.8 80.8649 248.8C80.8649 248.8 80.8649 248.8 80.8649 248.8C80.8649 248.8 80.8649 248.8 80.8649 248.8C80.8649 248.8 80.8649 248.8 80.8649 248.8C80.8649 248.8 80.8649 248.8 80.8649 248.8C80.8649 248.8 80.8649 248.8 80.8649 248.8C80.8649 248.8 80.8649 248.8 80.8649 248.8C80.8649 248.8 80.8649 248.8 80.8649 248.8C80.8649 248.8 80.8649 248.8 80.8649 248.8C80.8649 248.8 80.8649 248.8 80.8649 248.8C80.8649 248.8 80.8649 248.8 80.8649 248.8C80.8649 248.8 80.8649 248.8 80.8649 248.8C80.8649 248.8 80.8649 248.8 80.8649 248.8C80.8649 248.8 80.8649 248.8 80.8649 248.8C80.8649 248.8 80.8649 248.8 80.8649 248.8C80.8649 248.8 80.8649 248.8 80.8649 248.8C80.8649 248.8 80.8649 248.8 80.8649 248.8C80.8649 248.8 80.8649 248.8 80.8649 248.8C80.8649 248.8 80.8649 248.8 80.8649 248.8C80.8649 248.8 80.8649 248.8 80.8649 248.8C80.8649 248.8 80.8649 248.8 80.8649 248.8C80.8649 248.8 80.8649 248.8 80.8649 248.8C80.8649 248.8 80.8649 248.8 80.8649 248.8C80.8649 248.8 80.8649 248.8 80.8649 248.8C80.8649 248.8 80.8649 248.8 80.8649 248.8C80.8649 248.8 80.8649 248.8 80.8649 248.8C80.8649 248.8 80.8649 248.8 80.8649 248.8C80.8649 248.8 80.8649 248.8 80.8649 248.8C80.8649 248.8 80.8649 248.8 80.8649 248.8C80.8649 248.8 80.8649 248.8 80.8649 248.8C80.8649 248.8 80.8649 248.8 80.8649 248.8C80.8649 248.8 80.8649 248.8 80.8649 248.8C80.8649 248.8 80.8649 248.8 80.8649 248.8C80.8649 248.8 80.8649 248.8 80.8649 248.8C80.8649 248.8 80.8649 248.8 80.8649 248.8C80.8649 248.8 80.8649 248.8 80.8649 248.8C80.8649 248.8 80.8649 248.8 80.8649 248.8C80.8649 248.8 80.8649 248.8 80.8649 248.8C80.8649 248.8 80.8649 248.8 80.8649 248.8C80.8649 248.8 80.8649 248.8 80.8649 248.8C80.8649 248.8 80.8649 248.8 80.8649 248.8C80.8649 248.8 80.8649 248.8 80.8649 248.8C80.8649 248.8 80.8649 248.8 80.8649 248.8C80.8649 248.8 80.8649 248.8 80.8649 248.8C80.8649 248.8 80.8649 248.8 80.8649 248.8C80.8649 248.8 80.8649 248.8 80.8649 248.8C80.8649 248.8 80.8649 248.8 80.8649 248.8C80.8649 248.8 80.8649 248.8 80.8649 248.8C80.8649 248.8 80.8649 248.8 80.8649 248.8C80.8649 248.8 80.8649 248.8 80.8649 248.8C80.8649 248.8 80.8649 248.8 80.8649 248.8C80.8649 248.8 80.8649 248.8 80.8649 248.8C80.8649 248.8 80.8649 248.8 80.8649 248.8C80.8649 248.8 80.8649 248.8 80.8649 248.8C80.8649 248.8 80.8649 248.8 80.8649 248.8C80.8649 248.8 80.8649 248.8 80.8649 248.8C80.8649 248.8 80.8649 248.8 80.8649 248.8C80.8649 248.8 80.8649 248.8 80.8649 248.8C80.8649 248.8 80.8649 248.8 80.8649 248.8C80.8649 248.8 80.8649 248.8 80.8649 248.8C80.8649 248.8 80.8649 248.8 80.8649 248.8C80.8649 248.8 80.8649 248.8 80.8649 248.8C80.8649 248.8 80.8649 248.8 80.8649 248.8C80.8649 248.8 80.8649 248.8 80.8649 248.8C80.8649 248.8 80.8649 248.8 80.8649 248.8C80.8649 248.8 80.8649 248.8 80.8649 248.8C80.8649 248.8 80.8649 248.8 80.8649 248.799C80.8649 248.799 80.8649 248.799 80.8649 248.799C80.8649 248.799 80.8649 248.799 80.8649 248.799C80.8649 248.799 80.8649 248.799 80.8649 248.799C80.8649 248.799 80.8649 248.799 80.8649 248.799C80.8649 248.799 80.8649 248.799 80.8649 248.799C80.8649 248.799 80.8649 248.799 80.8649 248.799C80.8649 248.799 80.8649 248.799 80.8649 248.799C80.8649 248.799 80.8649 248.799 80.8649 248.799C80.8649 248.799 80.8649 248.799 80.8649 248.799C80.8649 248.799 80.8649 248.799 80.8649 248.799C80.8649 248.799 80.8649 248.799 80.8649 248.799C80.8649 248.799 80.8649 248.799 80.8649 248.799C80.8649 248.799 80.8649 248.799 80.8649 248.799C80.8649 248.799 80.8649 248.799 80.8649 248.799C80.8649 248.799 80.8649 248.799 80.8649 248.799C80.8649 248.799 80.8649 248.799 80.8649 248.799C80.8649 248.799 80.8649 248.799 80.8649 248.799C80.8649 248.799 80.8649 248.799 80.8649 248.799C80.8649 248.799 80.8649 248.799 80.8649 248.799C80.8649 248.799 80.8649 248.799 80.8649 248.799C80.8649 248.799 80.8649 248.799 80.8649 248.799C80.8649 248.799 80.8649 248.799 80.8649 248.799C80.8649 248.799 80.8649 248.799 80.8649 248.799C80.8649 248.799 80.8649 248.799 80.8649 248.799C80.8649 248.799 80.8649 248.799 80.8649 248.799C80.8649 248.799 80.8649 248.799 80.8649 248.799C80.8649 248.799 80.8649 248.799 80.8649 248.799C80.8649 248.799 80.8649 248.799 80.8649 248.799C80.8649 248.799 80.8649 248.799 80.8649 248.799C80.8649 248.799 80.8649 248.799 80.8649 248.799C80.8649 248.799 80.8649 248.799 80.8649 248.799C80.8649 248.799 80.8649 248.799 80.8649 248.799C80.8649 248.799 80.8649 248.799 80.8649 248.799C80.8649 248.799 80.8649 248.799 80.8649 248.799C80.8649 248.799 80.8649 248.799 80.8649 248.799C80.8649 248.799 80.8649 248.799 80.8649 248.799C80.8649 248.799 80.8649 248.799 80.8649 248.799C80.8649 248.799 80.8649 248.799 80.8649 248.799C80.8649 248.799 80.8649 248.799 80.8649 248.799C80.8649 248.799 80.8649 248.799 80.8649 248.799C80.8649 248.799 80.8649 248.799 80.8649 248.799C80.8649 248.799 80.8649 248.799 80.8649 248.799C80.8649 248.799 80.8649 248.799 80.8649 248.799C80.8649 248.799 80.8649 248.799 80.8649 248.799C80.8649 248.799 80.8649 248.799 80.8649 248.799C80.8649 248.799 80.8649 248.799 80.8649 248.799C80.8649 248.799 80.8649 248.799 80.8649 248.799C80.8649 248.799 80.8649 248.799 80.8649 248.799C80.8649 248.799 80.8649 248.799 80.8649 248.799C80.8649 248.799 80.8649 248.799 80.8649 248.799C80.8649 248.799 80.8649 248.799 80.8649 248.799C80.8649 248.799 80.8649 248.799 80.8649 248.799C80.8649 248.799 80.8649 248.799 80.8649 248.799C80.8649 248.799 80.8649 248.799 80.8649 248.799C80.8649 248.799 80.8649 248.799 80.8649 248.799C80.8649 248.799 80.8649 248.799 80.8649 248.799C80.8649 248.799 80.8649 248.799 80.8649 248.799C80.8649 248.799 80.8649 248.799 80.8649 248.799C80.8649 248.799 80.8649 248.799 80.8649 248.799C80.8649 248.799 80.8649 248.799 80.8649 248.799C80.8649 248.799 80.8649 248.799 80.8649 248.799C80.8649 248.799 80.8649 248.799 80.8649 248.799C80.8649 248.799 80.8649 248.799 80.8649 248.799C80.8649 248.799 80.8649 248.799 80.8649 248.799C80.8649 248.799 80.8649 248.799 80.8649 248.799C80.8649 248.799 80.8649 248.799 80.8649 248.799C80.8649 248.799 80.8649 248.799 80.8649 248.799C80.8649 248.799 80.8649 248.799 80.8649 248.799C80.8649 248.799 80.8649 248.799 80.8649 248.799C80.8649 248.799 80.8649 248.799 80.8649 248.799H88.4543ZM80.8649 249.217V248.805H88.4543V249.217H80.8649ZM84.7269 253.011L84.6892 253.011L84.63 245.422L84.6677 245.422L84.7269 253.011ZM88.4304 248.536C88.3796 248.257 88.2691 248.106 88.2479 248.08C88.2327 248.062 88.305 248.156 88.5591 248.302L84.7754 254.881C83.016 253.869 81.3873 252.218 80.9642 249.897L88.4304 248.536ZM88.5593 248.302L127.542 270.725L123.758 277.303L84.7752 254.881L88.5593 248.302ZM127.542 270.725C128.173 271.088 129.246 271.38 130.533 271.38C131.818 271.38 132.901 271.088 133.546 270.72L137.312 277.309C135.249 278.487 132.788 278.969 130.533 278.969C128.279 278.969 125.817 278.488 123.758 277.304L127.542 270.725ZM133.546 270.72L173.701 247.771L177.467 254.36L137.312 277.309L133.546 270.72ZM173.701 247.771C173.982 247.61 174.052 247.509 174.028 247.54C174.013 247.559 173.974 247.614 173.934 247.709C173.892 247.806 173.855 247.934 173.838 248.086L181.383 248.907C181.105 251.463 179.351 253.283 177.467 254.36L173.701 247.771Z" fill="#211D50"/>
<path d="M86.6982 186.792C83.9912 188.357 83.9759 190.898 86.6658 192.463L125.648 215.147C128.338 216.712 132.72 216.712 135.427 215.147L175.582 191.932C178.289 190.367 178.304 187.824 175.617 186.259L136.634 163.575C133.944 162.01 129.562 162.01 126.855 163.575L86.6982 186.792Z" fill="white" stroke="#211D50" stroke-width="7.58936" stroke-linejoin="round"/>
<path d="M325.065 293.994C320.527 291.243 317.755 286.322 317.755 281.015L317.754 259.357L394.996 245.112V272.033C394.996 273.893 394.655 275.737 393.988 277.473L379.085 316.29C377.39 320.706 372.111 322.512 368.066 320.06L325.065 293.994Z" fill="white" stroke="#211D50" stroke-width="7.58936" stroke-linejoin="round"/>
<path d="M322.391 250.965C317.235 252.111 316.037 259.825 320.54 262.883L365.468 289.296C368.397 291.284 372.164 289.954 373.607 286.547C373.753 286.202 373.891 285.851 374.061 285.516L394.366 245.496C394.536 245.161 394.688 244.815 394.779 244.451C395.924 239.878 392.38 235.408 388.134 236.352L322.391 250.965Z" fill="white"/>
<path d="M322.391 250.965C317.235 252.111 316.037 259.825 320.54 262.883L365.468 289.296C368.397 291.284 372.164 289.954 373.607 286.547C373.753 286.202 373.891 285.851 374.061 285.516L394.366 245.496C394.536 245.161 394.688 244.815 394.779 244.451C395.924 239.878 392.38 235.408 388.134 236.352L322.391 250.965Z" stroke="#211D50" stroke-width="7.58936" stroke-linejoin="round"/>
<path fill-rule="evenodd" clip-rule="evenodd" d="M288.602 32.5781H217.452V101.225C217.323 103.573 218.489 105.987 220.952 107.14C223.541 108.352 224.93 111.26 224.2 114.025C223.136 118.059 226.47 121.898 230.614 121.409L238.137 120.521C240.384 120.256 242.633 121.007 244.269 122.571L247.916 126.055C250.849 128.858 255.468 128.858 258.402 126.055L262.048 122.571C263.685 121.007 265.933 120.256 268.181 120.521L275.704 121.409C279.848 121.898 283.182 118.059 282.118 114.025C281.388 111.26 282.777 108.352 285.366 107.14C288.358 105.74 289.436 102.477 288.602 99.734V32.5781Z" fill="white"/>
<path d="M217.452 32.5781V28.7834H213.658V32.5781H217.452ZM288.603 32.5781H292.397V28.7834H288.603V32.5781ZM217.452 101.225L221.241 101.434L221.247 101.33V101.225H217.452ZM220.952 107.14L222.561 103.703L222.561 103.703L220.952 107.14ZM224.2 114.025L227.869 114.993L227.869 114.993L224.2 114.025ZM230.614 121.409L231.059 125.178L231.059 125.178L230.614 121.409ZM238.137 120.521L237.692 116.752L237.692 116.752L238.137 120.521ZM244.269 122.571L241.648 125.314L241.648 125.314L244.269 122.571ZM247.916 126.055L250.538 123.311L250.538 123.311L247.916 126.055ZM258.402 126.055L261.023 128.799L261.023 128.799L258.402 126.055ZM262.048 122.571L259.427 119.827L259.427 119.827L262.048 122.571ZM268.181 120.521L268.626 116.752L268.626 116.752L268.181 120.521ZM275.704 121.409L275.259 125.178L275.259 125.178L275.704 121.409ZM282.118 114.025L285.787 113.056L285.787 113.056L282.118 114.025ZM285.366 107.14L283.757 103.703L283.757 103.703L285.366 107.14ZM288.603 99.734H284.808V100.298L284.972 100.838L288.603 99.734ZM217.452 36.3728H288.603V28.7834H217.452V36.3728ZM221.247 101.225V32.5781H213.658V101.225H221.247ZM222.561 103.703C221.654 103.279 221.187 102.412 221.241 101.434L213.663 101.016C213.458 104.734 215.325 108.696 219.343 110.577L222.561 103.703ZM227.869 114.993C229.075 110.425 226.782 105.68 222.561 103.703L219.343 110.577C220.3 111.025 220.785 112.096 220.531 113.056L227.869 114.993ZM230.169 117.64C228.683 117.816 227.488 116.439 227.869 114.993L220.531 113.056C218.784 119.679 224.257 125.98 231.059 125.178L230.169 117.64ZM237.692 116.752L230.169 117.64L231.059 125.178L238.582 124.29L237.692 116.752ZM246.891 119.827C244.436 117.482 241.063 116.355 237.692 116.752L238.582 124.29C239.705 124.157 240.83 124.533 241.648 125.314L246.891 119.827ZM250.538 123.311L246.891 119.827L241.648 125.314L245.295 128.799L250.538 123.311ZM255.78 123.311C254.314 124.713 252.004 124.713 250.538 123.311L245.295 128.799C249.695 133.003 256.623 133.003 261.023 128.799L255.78 123.311ZM259.427 119.827L255.78 123.311L261.023 128.799L264.67 125.314L259.427 119.827ZM268.626 116.752C265.254 116.355 261.882 117.482 259.427 119.827L264.67 125.314C265.488 124.533 266.612 124.157 267.736 124.29L268.626 116.752ZM276.149 117.64L268.626 116.752L267.736 124.29L275.259 125.178L276.149 117.64ZM278.448 114.993C278.83 116.439 277.635 117.816 276.149 117.64L275.259 125.178C282.061 125.98 287.534 119.679 285.787 113.056L278.448 114.993ZM283.757 103.703C279.535 105.68 277.243 110.425 278.448 114.993L285.787 113.056C285.533 112.096 286.018 111.025 286.975 110.577L283.757 103.703ZM284.972 100.838C285.326 102.001 284.834 103.199 283.757 103.703L286.975 110.577C291.881 108.28 293.547 102.954 292.233 98.6303L284.972 100.838ZM284.808 32.5781V99.734H292.397V32.5781H284.808Z" fill="#211D50"/>
<path d="M247.915 6.00926C250.848 3.20657 255.467 3.20656 258.4 6.00926L262.047 9.49348C263.683 11.0569 265.932 11.8085 268.179 11.5432L275.703 10.6552C279.846 10.1661 283.181 14.0052 282.116 18.0397V18.0397C281.386 20.8041 282.775 23.7119 285.364 24.9241V24.9241C290.043 27.1144 290.043 33.8591 285.364 36.0495V36.0495C282.775 37.2617 281.386 40.1694 282.116 42.9338V42.9338C283.181 46.9683 279.846 50.8074 275.703 50.3183L268.179 49.4303C265.932 49.1651 263.683 49.9166 262.047 51.48L258.4 54.9643C255.467 57.767 250.848 57.767 247.915 54.9643L244.268 51.48C242.632 49.9166 240.383 49.1651 238.135 49.4303L230.612 50.3183C226.468 50.8074 223.134 46.9683 224.199 42.9338V42.9338C224.928 40.1694 223.54 37.2617 220.95 36.0495V36.0495C216.271 33.8591 216.271 27.1144 220.95 24.9241V24.9241C223.54 23.7119 224.928 20.8041 224.199 18.0397V18.0397C223.134 14.0052 226.468 10.1661 230.612 10.6552L238.135 11.5432C240.383 11.8085 242.632 11.0569 244.268 9.49348L247.915 6.00926Z" fill="white" stroke="#211D50" stroke-width="7.58936"/>
</svg>
