<svg width="652" height="652" viewBox="0 0 652 652" fill="none" xmlns="http://www.w3.org/2000/svg">
<path d="M120.104 34.3208V120.11H34.3149" stroke="#211D50" stroke-width="34.3158"/>
<path d="M531.893 617.688V531.899H617.683" stroke="#211D50" stroke-width="34.3158"/>
<path d="M531.892 394.633V531.896H394.629" stroke="#211D50" stroke-width="34.3158" stroke-linejoin="round"/>
<path d="M338.867 124.399L497.578 124.399C516.53 124.399 531.893 139.763 531.893 158.715L531.893 317.425" stroke="#211D50" stroke-width="34.3158" stroke-linejoin="round"/>
<path d="M257.364 124.399L120.101 124.399L120.101 261.662" stroke="#211D50" stroke-width="34.3158" stroke-linejoin="round"/>
<path d="M94.7178 452.104L86.7176 448.931C55.0935 436.386 52.7705 392.635 82.8983 377L143.422 345.59C174.182 329.626 201.478 307.778 223.757 281.29L235.919 266.829C254.972 244.175 279.185 226.398 306.545 214.975C332.977 203.939 361.622 199.137 390.253 200.941L415.884 202.556C449.644 204.683 483.486 200.447 515.638 190.071L581.462 168.828C613.782 158.398 643.552 190.684 630.411 221.916L627.061 229.879C621.602 242.853 612.903 254.21 601.79 262.87L518.486 327.787L466.234 376.291C445.169 395.845 420.798 411.526 394.242 422.613C366.696 434.114 337.257 440.481 307.381 441.399L241.521 443.423L136.179 457.258C122.154 459.099 107.879 457.325 94.7178 452.104Z" fill="white" stroke="#211D50" stroke-width="17.1579"/>
<ellipse cx="22.9999" cy="22.9999" rx="22.9999" ry="22.9999" transform="matrix(0.787519 -0.61629 0.609551 0.792747 228.653 361.983)" fill="#211D50"/>
<ellipse cx="22.9999" cy="22.9999" rx="22.9999" ry="22.9999" transform="matrix(0.787519 -0.61629 0.609551 0.792747 336.172 333.334)" fill="#211D50"/>
<ellipse cx="22.9999" cy="22.9999" rx="22.9999" ry="22.9999" transform="matrix(0.787519 -0.61629 0.609551 0.792747 421.7 279.838)" fill="#211D50"/>
<path d="M338.867 531.899L154.42 531.899C135.468 531.899 120.104 516.536 120.104 497.584L120.104 313.136" stroke="#211D50" stroke-width="34.3158" stroke-linejoin="round"/>
</svg>
