<svg width="687" height="681" viewBox="0 0 687 681" fill="none" xmlns="http://www.w3.org/2000/svg">
<path d="M327.526 375.203H22.8027" stroke="#211D50" stroke-width="9.29277"/>
<circle cx="22.8026" cy="373.13" r="14.5106" fill="#211D50"/>
<path d="M338.988 380.749L491.286 644.683" stroke="#211D50" stroke-width="9.29277"/>
<circle cx="14.5106" cy="14.5106" r="14.5106" transform="matrix(-0.499792 -0.866145 -0.865905 0.500208 512.016 648.829)" fill="#211D50"/>
<path d="M318.551 378.939L182.42 167.909" stroke="#211D50" stroke-width="9.29277"/>
<circle cx="14.5106" cy="14.5106" r="14.5106" transform="matrix(0.499792 0.866145 0.865905 -0.500208 145.106 109.865)" fill="#211D50"/>
<path d="M304.725 375.203H609.448" stroke="#211D50" stroke-width="9.29277"/>
<circle cx="14.5106" cy="14.5106" r="14.5106" transform="matrix(-1 0 0 1 623.958 358.619)" fill="#211D50"/>
<path d="M325.451 373.126L499.578 198.999" stroke="#211D50" stroke-width="9.29277"/>
<circle cx="14.5106" cy="14.5106" r="14.5106" transform="matrix(-1 0 0 1 516.162 182.415)" fill="#211D50"/>
<path d="M327.527 375.203L153.4 549.33" stroke="#211D50" stroke-width="9.29277"/>
<circle cx="14.5106" cy="14.5106" r="14.5106" transform="matrix(1 0 0 -1 136.816 565.914)" fill="#211D50"/>
<path d="M453.476 368.984C453.476 439.723 396.588 497.006 326.49 497.006C256.392 497.006 199.504 439.723 199.504 368.984C199.504 298.245 256.392 240.962 326.49 240.962C396.588 240.962 453.476 298.245 453.476 368.984Z" fill="white" stroke="#211D50" stroke-width="9.29277"/>
<circle cx="506.835" cy="191.744" r="31.6302" fill="white" stroke="#211D50" stroke-width="9.29277"/>
<circle cx="24.8753" cy="375.202" r="20.229" fill="white" stroke="#211D50" stroke-width="9.29277"/>
<circle cx="24.8753" cy="24.8753" r="20.229" transform="matrix(-0.499792 -0.866145 -0.865905 0.500208 526.527 650.903)" fill="white" stroke="#211D50" stroke-width="9.29277"/>
<path d="M248.259 396.629L246.776 395.79C236.843 390.172 238.117 375.448 248.871 371.566L264.233 366.022C273.814 362.563 282.627 357.25 290.168 350.386L294.291 346.633C300.737 340.765 308.487 336.523 316.893 334.259C325.014 332.072 333.525 331.792 341.761 333.442L348.322 334.756C358.58 336.811 369.138 336.906 379.442 335.036L394.95 332.223C406.192 330.183 414.597 342.299 408.779 352.158L407.903 353.642C406.742 355.61 405.098 357.248 403.128 358.401L373.86 375.534L356.72 387.657C349.814 392.542 342.103 396.167 333.944 398.364C325.48 400.643 316.675 401.349 307.966 400.445L288.758 398.452L254.77 398.352C252.487 398.345 250.245 397.752 248.259 396.629Z" fill="white" stroke="#211D50" stroke-width="9.29277"/>
<circle cx="6.21884" cy="6.21884" r="6.21884" transform="matrix(0.871303 -0.490746 0.509657 0.860378 286.067 371.061)" fill="#211D50"/>
<ellipse cx="6.21884" cy="6.21884" rx="6.21884" ry="6.21884" transform="matrix(0.871305 -0.490743 0.50966 0.860376 321.304 366.915)" fill="#211D50"/>
<ellipse cx="6.21884" cy="6.21884" rx="6.21884" ry="6.21884" transform="matrix(0.871305 -0.490743 0.50966 0.860376 346.18 354.477)" fill="#211D50"/>
<path fill-rule="evenodd" clip-rule="evenodd" d="M681.984 436.8L682 436.8V387.638L580.426 389.229V437.389L580.444 437.389C580.299 438.586 581.024 439.81 582.619 440.725L625.212 465.143C628.151 466.828 632.939 466.828 635.897 465.143L679.771 440.152C681.383 439.234 682.121 438.003 681.984 436.8Z" fill="white"/>
<path d="M682 436.8H686.646C686.646 439.355 684.583 441.431 682.027 441.446L682 436.8ZM681.984 436.8L677.368 437.328C677.218 436.017 677.632 434.704 678.507 433.717C679.383 432.73 680.637 432.161 681.956 432.154L681.984 436.8ZM682 387.638L681.927 382.992C683.172 382.973 684.373 383.454 685.26 384.327C686.147 385.2 686.646 386.393 686.646 387.638H682ZM580.426 389.229H575.779C575.779 386.691 577.815 384.623 580.353 384.583L580.426 389.229ZM580.426 437.389L580.452 442.035C579.215 442.042 578.027 441.556 577.15 440.684C576.272 439.812 575.779 438.626 575.779 437.389H580.426ZM580.444 437.389L580.417 432.742C581.751 432.735 583.023 433.301 583.911 434.296C584.799 435.291 585.216 436.62 585.057 437.944L580.444 437.389ZM582.619 440.725L584.93 436.694L584.93 436.694L582.619 440.725ZM625.212 465.143L622.901 469.174L622.901 469.174L625.212 465.143ZM635.897 465.143L638.196 469.18L638.196 469.18L635.897 465.143ZM679.771 440.152L677.471 436.115L677.471 436.115L679.771 440.152ZM682.027 441.446L682.011 441.446L681.956 432.154L681.973 432.153L682.027 441.446ZM686.646 387.638V436.8H677.354V387.638H686.646ZM580.353 384.583L681.927 382.992L682.073 392.284L580.498 393.875L580.353 384.583ZM575.779 437.389V389.229H585.072V437.389H575.779ZM580.47 442.035L580.452 442.035L580.399 432.743L580.417 432.742L580.47 442.035ZM585.057 437.944C585.088 437.683 585.07 437.423 585.012 437.185C584.955 436.951 584.869 436.778 584.8 436.669C584.669 436.464 584.624 436.518 584.93 436.694L580.309 444.756C577.796 443.315 575.381 440.572 575.831 436.834L585.057 437.944ZM584.93 436.694L627.523 461.112L622.901 469.174L580.308 444.756L584.93 436.694ZM627.523 461.112C628.119 461.454 629.203 461.76 630.547 461.76C631.89 461.76 632.985 461.454 633.597 461.106L638.196 469.18C635.851 470.516 633.073 471.053 630.547 471.053C628.023 471.053 625.244 470.517 622.901 469.174L627.523 461.112ZM633.597 461.106L677.471 436.115L682.07 444.19L638.196 469.18L633.597 461.106ZM677.471 436.115C677.787 435.935 677.753 435.872 677.627 436.067C677.56 436.171 677.474 436.339 677.416 436.571C677.357 436.805 677.337 437.065 677.368 437.328L686.6 436.272C687.029 440.019 684.588 442.756 682.07 444.19L677.471 436.115Z" fill="#211D50"/>
<path d="M582.655 384.875C579.697 386.56 579.68 389.295 582.619 390.98L625.212 415.398C628.151 417.083 632.939 417.083 635.897 415.398L679.771 390.407C682.728 388.723 682.745 385.985 679.808 384.301L637.215 359.883C634.276 358.198 629.488 358.198 626.531 359.883L582.655 384.875Z" fill="white" stroke="#211D50" stroke-width="9.29277" stroke-linejoin="round"/>
<path fill-rule="evenodd" clip-rule="evenodd" d="M681.984 358.034L682 358.034V308.873L580.426 310.463V358.623L580.444 358.623C580.299 359.821 581.024 361.045 582.619 361.959L625.212 386.377C628.151 388.062 632.939 388.062 635.897 386.377L679.771 361.387C681.383 360.468 682.121 359.237 681.984 358.034Z" fill="white"/>
<path d="M682 358.034H686.646C686.646 360.59 684.583 362.665 682.027 362.68L682 358.034ZM681.984 358.034L677.368 358.562C677.218 357.251 677.632 355.939 678.507 354.951C679.383 353.964 680.637 353.396 681.956 353.388L681.984 358.034ZM682 308.873L681.927 304.227C683.172 304.207 684.373 304.688 685.26 305.561C686.147 306.435 686.646 307.628 686.646 308.873H682ZM580.426 310.463H575.779C575.779 307.926 577.815 305.857 580.353 305.818L580.426 310.463ZM580.426 358.623L580.452 363.27C579.215 363.277 578.027 362.79 577.15 361.918C576.272 361.046 575.779 359.86 575.779 358.623H580.426ZM580.444 358.623L580.417 353.977C581.751 353.969 583.023 354.535 583.911 355.53C584.799 356.525 585.216 357.854 585.057 359.178L580.444 358.623ZM582.619 361.959L584.93 357.928L584.93 357.928L582.619 361.959ZM625.212 386.377L622.901 390.408L622.901 390.408L625.212 386.377ZM635.897 386.377L638.196 390.415L638.196 390.415L635.897 386.377ZM679.771 361.387L677.471 357.349L677.471 357.349L679.771 361.387ZM682.027 362.68L682.011 362.681L681.956 353.388L681.973 353.388L682.027 362.68ZM686.646 308.873V358.034H677.354V308.873H686.646ZM580.353 305.818L681.927 304.227L682.073 313.518L580.498 315.109L580.353 305.818ZM575.779 358.623V310.463H585.072V358.623H575.779ZM580.47 363.269L580.452 363.27L580.399 353.977L580.417 353.977L580.47 363.269ZM585.057 359.178C585.088 358.917 585.07 358.657 585.012 358.42C584.955 358.185 584.869 358.013 584.8 357.904C584.669 357.698 584.624 357.753 584.93 357.928L580.309 365.99C577.796 364.55 575.381 361.806 575.831 358.068L585.057 359.178ZM584.93 357.928L627.523 382.346L622.901 390.408L580.308 365.99L584.93 357.928ZM627.523 382.346C628.119 382.688 629.203 382.994 630.547 382.994C631.89 382.994 632.985 382.689 633.597 382.34L638.196 390.415C635.851 391.751 633.073 392.287 630.547 392.287C628.023 392.287 625.244 391.751 622.901 390.408L627.523 382.346ZM633.597 382.34L677.471 357.349L682.07 365.424L638.196 390.415L633.597 382.34ZM677.471 357.349C677.787 357.169 677.753 357.106 677.627 357.302C677.56 357.405 677.474 357.574 677.416 357.805C677.357 358.04 677.337 358.299 677.368 358.562L686.6 357.506C687.029 361.253 684.588 363.99 682.07 365.424L677.471 357.349Z" fill="#211D50"/>
<path d="M582.655 306.106C579.697 307.791 579.68 310.526 582.619 312.211L625.212 336.629C628.151 338.314 632.939 338.314 635.897 336.629L679.771 311.638C682.728 309.954 682.745 307.216 679.808 305.532L637.215 281.114C634.276 279.429 629.488 279.429 626.531 281.114L582.655 306.106Z" fill="white" stroke="#211D50" stroke-width="9.29277" stroke-linejoin="round"/>
<path d="M509.728 544.601L511.144 539.646C514.945 526.347 498.432 516.813 488.815 526.754L485.232 530.458C483.051 532.711 479.243 531.691 478.482 528.649L477.23 523.65C473.872 510.233 454.805 510.233 451.446 523.65L450.195 528.649C449.434 531.691 445.626 532.711 443.445 530.458L439.862 526.754C430.245 516.813 413.732 526.347 417.532 539.646L418.948 544.601C419.81 547.616 417.022 550.404 414.007 549.542L409.052 548.126C395.753 544.326 386.219 560.839 396.16 570.456L399.864 574.039C402.118 576.22 401.097 580.028 398.055 580.789L393.056 582.04C379.639 585.399 379.639 604.466 393.056 607.824L398.055 609.076C401.097 609.837 402.118 613.645 399.864 615.826L396.16 619.409C386.219 629.026 395.753 645.539 409.052 641.738L414.007 640.322C417.022 639.461 419.81 642.249 418.948 645.264L417.532 650.219C413.732 663.518 430.245 673.051 439.862 663.111L443.445 659.407C445.626 657.153 449.434 658.174 450.195 661.216L451.446 666.215C454.805 679.632 473.872 679.632 477.23 666.215L478.482 661.216C479.243 658.174 483.051 657.153 485.232 659.407L488.815 663.111C498.432 673.051 514.945 663.518 511.144 650.219L509.728 645.264C508.867 642.249 511.655 639.461 514.67 640.322L519.625 641.738C532.924 645.539 542.457 629.026 532.517 619.409L528.813 615.826C526.559 613.645 527.58 609.837 530.622 609.076L535.621 607.824C549.038 604.466 549.038 585.399 535.621 582.04L530.622 580.789C527.58 580.028 526.559 576.22 528.813 574.039L532.517 570.456C542.457 560.839 532.924 544.326 519.625 548.126L514.67 549.542C511.655 550.404 508.867 547.616 509.728 544.601Z" fill="white" stroke="#211D50" stroke-width="9.29277"/>
<path d="M78.7695 578.354H186.563V602.783C186.563 606.465 183.579 609.449 179.897 609.449H85.4348C81.7537 609.449 78.7695 606.465 78.7695 602.783V578.354Z" fill="white"/>
<path d="M78.7695 578.354V573.708H74.1231V578.354H78.7695ZM186.563 578.354H191.209V573.708H186.563V578.354ZM78.7695 583.001H186.563V573.708H78.7695V583.001ZM181.916 578.354V602.783H191.209V578.354H181.916ZM179.897 604.802H85.4348V614.095H179.897V604.802ZM83.4159 602.783V578.354H74.1231V602.783H83.4159ZM85.4348 604.802C84.3198 604.802 83.4159 603.898 83.4159 602.783H74.1231C74.1231 609.031 79.1875 614.095 85.4348 614.095V604.802ZM181.916 602.783C181.916 603.898 181.012 604.802 179.897 604.802V614.095C186.145 614.095 191.209 609.031 191.209 602.783H181.916Z" fill="#211D50"/>
<path d="M126.944 490.457C129.488 486.039 135.847 486.039 138.391 490.457L185.669 572.559C188.213 576.977 185.033 582.499 179.945 582.499H85.3898C80.3022 582.499 77.1225 576.977 79.6663 572.559L126.944 490.457Z" fill="white"/>
<path d="M126.944 490.457C129.488 486.039 135.847 486.039 138.391 490.457L185.669 572.559C188.213 576.977 185.033 582.499 179.945 582.499H85.3898C80.3022 582.499 77.1225 576.977 79.6663 572.559L126.944 490.457Z" stroke="#211D50" stroke-width="9.29277"/>
<rect x="120.233" y="33.1672" width="107.793" height="105.72" fill="white"/>
<path d="M126.451 10.3665V37.3147H99.5027" stroke="#211D50" stroke-width="12.4377"/>
<path d="M257.046 196.934V169.986H283.994" stroke="#211D50" stroke-width="12.4377"/>
<path d="M257.045 126.453V169.985H213.513" stroke="#211D50" stroke-width="12.4377" stroke-linejoin="round"/>
<path d="M194.858 39.3854L246.048 39.3854C250.977 39.3854 254.973 43.3813 254.973 48.3104L254.973 101.574" stroke="#211D50" stroke-width="12.4377" stroke-linejoin="round"/>
<path d="M169.984 39.3871L126.452 39.3871L126.452 82.9189" stroke="#211D50" stroke-width="12.4377" stroke-linejoin="round"/>
<path d="M120.785 144.295L112.167 140.752C104.083 137.429 103.58 126.133 111.333 122.046L136.856 108.593C145.134 104.229 152.462 98.2457 158.404 90.9966L163.771 84.4479C169.68 77.2389 177.247 71.5784 185.816 67.9568C194.096 64.4572 203.075 62.9618 212.025 63.5915L222.688 64.3418C231.617 64.9702 240.589 63.8682 249.115 61.0959L276.958 52.0423C285.285 49.3346 292.94 57.6068 289.636 65.742L286.106 74.4331C284.706 77.8805 282.441 80.9086 279.533 83.2227L252.616 104.639L235.585 120.814C229.47 126.622 222.364 131.276 214.608 134.554L212.867 135.29C204.823 138.69 196.221 140.549 187.505 140.772L165.809 141.327L131.643 145.724C127.958 146.198 124.217 145.706 120.785 144.295Z" fill="white" stroke="#211D50" stroke-width="8.29178"/>
<ellipse cx="7.25531" cy="7.25531" rx="7.25531" ry="7.25531" transform="matrix(0.786401 -0.617717 0.607917 0.794001 161.69 116.087)" fill="#211D50"/>
<ellipse cx="7.25531" cy="7.25531" rx="7.25531" ry="7.25531" transform="matrix(0.786401 -0.617717 0.607917 0.794001 194.858 107.795)" fill="#211D50"/>
<ellipse cx="7.25531" cy="7.25531" rx="7.25531" ry="7.25531" transform="matrix(0.7864 -0.617717 0.607917 0.794001 221.805 91.2112)" fill="#211D50"/>
<path d="M194.858 169.983L135.376 169.983C130.447 169.983 126.451 165.987 126.451 161.058L126.451 99.5029" stroke="#211D50" stroke-width="12.4377" stroke-linejoin="round"/>
</svg>
